<?xml version="1.0" encoding="UTF-8" standalone="no"?><svg xmlns="http://www.w3.org/2000/svg" xmlns:xlink="http://www.w3.org/1999/xlink" contentScriptType="application/ecmascript" contentStyleType="text/css" height="540px" preserveAspectRatio="none" style="width:295px;height:540px;" version="1.1" viewBox="0 0 295 540" width="295px" zoomAndPan="magnify"><defs><filter height="300%" id="f1mjtw27dol34z" width="300%" x="-1" y="-1"><feGaussianBlur result="blurOut" stdDeviation="2.0"/><feColorMatrix in="blurOut" result="blurOut2" type="matrix" values="0 0 0 0 0 0 0 0 0 0 0 0 0 0 0 0 0 0 .4 0"/><feOffset dx="4.0" dy="4.0" in="blurOut2" result="blurOut3"/><feBlend in="SourceGraphic" in2="blurOut3" mode="normal"/></filter></defs><g><text fill="#000000" font-family="sans-serif" font-size="18" lengthAdjust="spacingAndGlyphs" textLength="234" x="34" y="16.708">Core Model Class Diagram</text><!--class MetadataType--><rect fill="#FEFECE" filter="url(#f1mjtw27dol34z)" height="73.6094" id="MetadataType" style="stroke: #A80036; stroke-width: 1.5;" width="121" x="82.5" y="28.9531"/><ellipse cx="97.5" cy="44.9531" fill="#ADD1B2" rx="11" ry="11" style="stroke: #A80036; stroke-width: 1.0;"/><path d="M100.4688,50.5938 Q99.8906,50.8906 99.25,51.0313 Q98.6094,51.1875 97.9063,51.1875 Q95.4063,51.1875 94.0781,49.5469 Q92.7656,47.8906 92.7656,44.7656 Q92.7656,41.6406 94.0781,39.9844 Q95.4063,38.3281 97.9063,38.3281 Q98.6094,38.3281 99.25,38.4844 Q99.9063,38.6406 100.4688,38.9375 L100.4688,41.6563 Q99.8438,41.0781 99.25,40.8125 Q98.6563,40.5313 98.0313,40.5313 Q96.6875,40.5313 96,41.6094 Q95.3125,42.6719 95.3125,44.7656 Q95.3125,46.8594 96,47.9375 Q96.6875,49 98.0313,49 Q98.6563,49 99.25,48.7344 Q99.8438,48.4531 100.4688,47.875 L100.4688,50.5938 Z "/><text fill="#000000" font-family="sans-serif" font-size="12" lengthAdjust="spacingAndGlyphs" textLength="89" x="111.5" y="49.1074">MetadataType</text><line style="stroke: #A80036; stroke-width: 1.5;" x1="83.5" x2="202.5" y1="60.9531" y2="60.9531"/><text fill="#000000" font-family="sans-serif" font-size="11" lengthAdjust="spacingAndGlyphs" textLength="91" x="88.5" y="75.1636">definitions : dict</text><text fill="#000000" font-family="sans-serif" font-size="11" lengthAdjust="spacingAndGlyphs" textLength="63" x="88.5" y="87.9683">fields : dict</text><line style="stroke: #A80036; stroke-width: 1.5;" x1="83.5" x2="202.5" y1="94.5625" y2="94.5625"/><!--class Product--><rect fill="#FEFECE" filter="url(#f1mjtw27dol34z)" height="60.8047" id="Product" style="stroke: #A80036; stroke-width: 1.5;" width="81" x="102.5" y="162.9531"/><ellipse cx="117.5" cy="178.9531" fill="#ADD1B2" rx="11" ry="11" style="stroke: #A80036; stroke-width: 1.0;"/><path d="M120.4688,184.5938 Q119.8906,184.8906 119.25,185.0313 Q118.6094,185.1875 117.9063,185.1875 Q115.4063,185.1875 114.0781,183.5469 Q112.7656,181.8906 112.7656,178.7656 Q112.7656,175.6406 114.0781,173.9844 Q115.4063,172.3281 117.9063,172.3281 Q118.6094,172.3281 119.25,172.4844 Q119.9063,172.6406 120.4688,172.9375 L120.4688,175.6563 Q119.8438,175.0781 119.25,174.8125 Q118.6563,174.5313 118.0313,174.5313 Q116.6875,174.5313 116,175.6094 Q115.3125,176.6719 115.3125,178.7656 Q115.3125,180.8594 116,181.9375 Q116.6875,183 118.0313,183 Q118.6563,183 119.25,182.7344 Q119.8438,182.4531 120.4688,181.875 L120.4688,184.5938 Z "/><text fill="#000000" font-family="sans-serif" font-size="12" lengthAdjust="spacingAndGlyphs" textLength="49" x="131.5" y="183.1074">Product</text><line style="stroke: #A80036; stroke-width: 1.5;" x1="103.5" x2="182.5" y1="194.9531" y2="194.9531"/><text fill="#000000" font-family="sans-serif" font-size="11" lengthAdjust="spacingAndGlyphs" textLength="60" x="108.5" y="209.1636">name : str</text><line style="stroke: #A80036; stroke-width: 1.5;" x1="103.5" x2="182.5" y1="215.7578" y2="215.7578"/><!--class Measurement--><rect fill="#FEFECE" filter="url(#f1mjtw27dol34z)" height="99.2188" id="Measurement" style="stroke: #A80036; stroke-width: 1.5;" width="118" x="6" y="283.9531"/><ellipse cx="21" cy="299.9531" fill="#ADD1B2" rx="11" ry="11" style="stroke: #A80036; stroke-width: 1.0;"/><path d="M23.9688,305.5938 Q23.3906,305.8906 22.75,306.0313 Q22.1094,306.1875 21.4063,306.1875 Q18.9063,306.1875 17.5781,304.5469 Q16.2656,302.8906 16.2656,299.7656 Q16.2656,296.6406 17.5781,294.9844 Q18.9063,293.3281 21.4063,293.3281 Q22.1094,293.3281 22.75,293.4844 Q23.4063,293.6406 23.9688,293.9375 L23.9688,296.6563 Q23.3438,296.0781 22.75,295.8125 Q22.1563,295.5313 21.5313,295.5313 Q20.1875,295.5313 19.5,296.6094 Q18.8125,297.6719 18.8125,299.7656 Q18.8125,301.8594 19.5,302.9375 Q20.1875,304 21.5313,304 Q22.1563,304 22.75,303.7344 Q23.3438,303.4531 23.9688,302.875 L23.9688,305.5938 Z "/><text fill="#000000" font-family="sans-serif" font-size="12" lengthAdjust="spacingAndGlyphs" textLength="86" x="35" y="304.1074">Measurement</text><line style="stroke: #A80036; stroke-width: 1.5;" x1="7" x2="123" y1="315.9531" y2="315.9531"/><text fill="#000000" font-family="sans-serif" font-size="11" lengthAdjust="spacingAndGlyphs" textLength="60" x="12" y="330.1636">name : str</text><text fill="#000000" font-family="sans-serif" font-size="11" lengthAdjust="spacingAndGlyphs" textLength="59" x="12" y="342.9683">dtype : str</text><text fill="#000000" font-family="sans-serif" font-size="11" lengthAdjust="spacingAndGlyphs" textLength="67" x="12" y="355.7729">nodata : str</text><text fill="#000000" font-family="sans-serif" font-size="11" lengthAdjust="spacingAndGlyphs" textLength="56" x="12" y="368.5776">units : str</text><line style="stroke: #A80036; stroke-width: 1.5;" x1="7" x2="123" y1="375.1719" y2="375.1719"/><!--class Dataset--><rect fill="#FEFECE" filter="url(#f1mjtw27dol34z)" height="60.8047" id="Dataset" style="stroke: #A80036; stroke-width: 1.5;" width="124" x="159" y="302.9531"/><ellipse cx="192.9" cy="318.9531" fill="#ADD1B2" rx="11" ry="11" style="stroke: #A80036; stroke-width: 1.0;"/><path d="M195.8688,324.5938 Q195.2906,324.8906 194.65,325.0313 Q194.0094,325.1875 193.3063,325.1875 Q190.8063,325.1875 189.4781,323.5469 Q188.1656,321.8906 188.1656,318.7656 Q188.1656,315.6406 189.4781,313.9844 Q190.8063,312.3281 193.3063,312.3281 Q194.0094,312.3281 194.65,312.4844 Q195.3063,312.6406 195.8688,312.9375 L195.8688,315.6563 Q195.2438,315.0781 194.65,314.8125 Q194.0563,314.5313 193.4313,314.5313 Q192.0875,314.5313 191.4,315.6094 Q190.7125,316.6719 190.7125,318.7656 Q190.7125,320.8594 191.4,321.9375 Q192.0875,323 193.4313,323 Q194.0563,323 194.65,322.7344 Q195.2438,322.4531 195.8688,321.875 L195.8688,324.5938 Z "/><text fill="#000000" font-family="sans-serif" font-size="12" lengthAdjust="spacingAndGlyphs" textLength="50" x="211.1" y="323.1074">Dataset</text><line style="stroke: #A80036; stroke-width: 1.5;" x1="160" x2="282" y1="334.9531" y2="334.9531"/><text fill="#000000" font-family="sans-serif" font-size="11" lengthAdjust="spacingAndGlyphs" textLength="112" x="165" y="349.1636">metadata_doc : dict</text><line style="stroke: #A80036; stroke-width: 1.5;" x1="160" x2="282" y1="355.7578" y2="355.7578"/><!--class Location--><rect fill="#FEFECE" filter="url(#f1mjtw27dol34z)" height="86.4141" id="Location" style="stroke: #A80036; stroke-width: 1.5;" width="126" x="158" y="442.9531"/><ellipse cx="191.45" cy="458.9531" fill="#ADD1B2" rx="11" ry="11" style="stroke: #A80036; stroke-width: 1.0;"/><path d="M194.4188,464.5938 Q193.8406,464.8906 193.2,465.0313 Q192.5594,465.1875 191.8563,465.1875 Q189.3563,465.1875 188.0281,463.5469 Q186.7156,461.8906 186.7156,458.7656 Q186.7156,455.6406 188.0281,453.9844 Q189.3563,452.3281 191.8563,452.3281 Q192.5594,452.3281 193.2,452.4844 Q193.8563,452.6406 194.4188,452.9375 L194.4188,455.6563 Q193.7938,455.0781 193.2,454.8125 Q192.6063,454.5313 191.9813,454.5313 Q190.6375,454.5313 189.95,455.6094 Q189.2625,456.6719 189.2625,458.7656 Q189.2625,460.8594 189.95,461.9375 Q190.6375,463 191.9813,463 Q192.6063,463 193.2,462.7344 Q193.7938,462.4531 194.4188,461.875 L194.4188,464.5938 Z "/><text fill="#000000" font-family="sans-serif" font-size="12" lengthAdjust="spacingAndGlyphs" textLength="53" x="209.55" y="463.1074">Location</text><line style="stroke: #A80036; stroke-width: 1.5;" x1="159" x2="283" y1="474.9531" y2="474.9531"/><text fill="#000000" font-family="sans-serif" font-size="11" lengthAdjust="spacingAndGlyphs" textLength="94" x="164" y="489.1636">uri_scheme : str</text><text fill="#000000" font-family="sans-serif" font-size="11" lengthAdjust="spacingAndGlyphs" textLength="76" x="164" y="501.9683">uri_body : str</text><text fill="#000000" font-family="sans-serif" font-size="11" lengthAdjust="spacingAndGlyphs" textLength="114" x="164" y="514.7729">archived : DateTime</text><line style="stroke: #A80036; stroke-width: 1.5;" x1="159" x2="283" y1="521.3672" y2="521.3672"/><!--link MetadataType to Product--><path d="M143,116.5431 C143,132.1131 143,148.8131 143,162.5731 " fill="none" id="MetadataType-Product" style="stroke: #A80036; stroke-width: 1.0;"/><polygon fill="#FFFFFF" points="143,103.2531,139,109.2531,143,115.2531,147,109.2531,143,103.2531" style="stroke: #A80036; stroke-width: 1.0;"/><!--link Product to Measurement--><path d="M119.69,235.6831 C111.13,250.8431 101.34,268.1531 92.44,283.9031 " fill="none" id="Product-Measurement" style="stroke: #A80036; stroke-width: 1.0;"/><polygon fill="#A80036" points="126.27,224.0531,119.8343,227.3061,120.3618,234.4979,126.7975,231.2449,126.27,224.0531" style="stroke: #A80036; stroke-width: 1.0;"/><!--link Product to Dataset--><path d="M166.24,235.5631 C178.47,257.2131 193.2,283.2631 204.29,302.8931 " fill="none" id="Product-Dataset" style="stroke: #A80036; stroke-width: 1.0;"/><polygon fill="#FFFFFF" points="159.73,224.0531,159.2025,231.2449,165.6382,234.4979,166.1657,227.3061,159.73,224.0531" style="stroke: #A80036; stroke-width: 1.0;"/><!--link Dataset to Location--><path d="M221,377.3331 C221,397.8431 221,422.3231 221,442.7431 " fill="none" id="Dataset-Location" style="stroke: #A80036; stroke-width: 1.0;"/><polygon fill="#A80036" points="221,364.1831,217,370.1831,221,376.1831,225,370.1831,221,364.1831" style="stroke: #A80036; stroke-width: 1.0;"/><!--
@startuml

title Core Model Class Diagram

class MetadataType {
definitions : dict
fields : dict
}

class Product {
name : str
}

MetadataType o- - Product

class Measurement {
name : str
dtype : str
nodata : str
units : str
}


Product *- - Measurement

class Dataset {
metadata_doc : dict
}

Product o- - Dataset

class Location {
uri_scheme : str
uri_body : str
archived : DateTime
}

Dataset *- - Location

@enduml

PlantUML version 1.2018.13(Tue Nov 27 04:11:51 AEDT 2018)
(GPL source distribution)
Java Runtime: OpenJDK Runtime Environment
JVM: OpenJDK 64-Bit Server VM
Java Version: 11.0.7+10-post-Ubuntu-3ubuntu1
Operating System: Linux
OS Version: 5.4.0-1012-azure
Default Encoding: UTF-8
Language: en
Country: AU
--></g></svg>
