<?xml version="1.0" encoding="UTF-8" standalone="no"?>
<!DOCTYPE svg PUBLIC "-//W3C//DTD SVG 1.1//EN"
 "http://www.w3.org/Graphics/SVG/1.1/DTD/svg11.dtd">
<!-- Generated by graphviz version 2.26.0 (20091210.2329)
 -->
<!-- Title: G Pages: 1 -->
<svg width="519pt" height="572pt"
 viewBox="0.00 0.00 519.00 572.00" xmlns="http://www.w3.org/2000/svg" xmlns:xlink="http://www.w3.org/1999/xlink">
<g id="graph1" class="graph" transform="scale(1 1) rotate(0) translate(4 568)">
<title>G</title>
<polygon fill="white" stroke="white" points="-4,5 -4,-568 516,-568 516,5 -4,5"/>
<!-- cloud_free_ls_nbar -->
<g id="node1" class="node"><title>cloud_free_ls_nbar</title>
<text text-anchor="middle" x="261" y="-14.7" font-family="Bookman; Helvetica" font-size="12.00">cloud_free_ls_nbar</text>
</g>
<!-- cloud_free_ls8_nbar -->
<g id="node2" class="node"><title>cloud_free_ls8_nbar</title>
<text text-anchor="middle" x="180" y="-146.7" font-family="Bookman; Helvetica" font-size="12.00">cloud_free_ls8_nbar</text>
</g>
<!-- collate -->
<g id="node4" class="node"><title>collate</title>
<polygon fill="lightgray" stroke="lightgray" points="290,-95.5 232,-95.5 232,-72.5 290,-72.5 290,-95.5"/>
<text text-anchor="middle" x="261" y="-80.7" font-family="Bookman; Helvetica" font-size="12.00">collate</text>
</g>
<!-- cloud_free_ls8_nbar&#45;&gt;collate -->
<g id="edge4" class="edge"><title>cloud_free_ls8_nbar&#45;&gt;collate</title>
<path fill="none" stroke="black" d="M202.134,-131.965C213.592,-122.629 227.539,-111.264 238.981,-101.941"/>
<polygon fill="black" stroke="black" points="241.257,-104.602 246.798,-95.5718 236.835,-99.1753 241.257,-104.602"/>
</g>
<!-- cloud_free_ls7_nbar -->
<g id="node3" class="node"><title>cloud_free_ls7_nbar</title>
<text text-anchor="middle" x="342" y="-146.7" font-family="Bookman; Helvetica" font-size="12.00">cloud_free_ls7_nbar</text>
</g>
<!-- cloud_free_ls7_nbar&#45;&gt;collate -->
<g id="edge6" class="edge"><title>cloud_free_ls7_nbar&#45;&gt;collate</title>
<path fill="none" stroke="black" d="M319.866,-131.965C308.408,-122.629 294.461,-111.264 283.019,-101.941"/>
<polygon fill="black" stroke="black" points="285.165,-99.1753 275.202,-95.5718 280.743,-104.602 285.165,-99.1753"/>
</g>
<!-- collate&#45;&gt;cloud_free_ls_nbar -->
<g id="edge2" class="edge"><title>collate&#45;&gt;cloud_free_ls_nbar</title>
<path fill="none" stroke="black" d="M261,-72.2005C261,-65.0051 261,-55.4776 261,-46.4196"/>
<polygon fill="black" stroke="black" points="264.5,-46.1698 261,-36.1699 257.5,-46.1699 264.5,-46.1698"/>
</g>
<!-- trans1 -->
<g id="node8" class="node"><title>trans1</title>
<polygon fill="lightgray" stroke="lightgray" points="240,-227.5 88,-227.5 88,-204.5 240,-204.5 240,-227.5"/>
<text text-anchor="middle" x="164" y="-212.7" font-family="Bookman; Helvetica" font-size="12.00">transform: apply_mask</text>
</g>
<!-- trans1&#45;&gt;cloud_free_ls8_nbar -->
<g id="edge8" class="edge"><title>trans1&#45;&gt;cloud_free_ls8_nbar</title>
<path fill="none" stroke="black" d="M166.86,-204.201C168.624,-196.927 170.965,-187.27 173.182,-178.124"/>
<polygon fill="black" stroke="black" points="176.641,-178.713 175.595,-168.17 169.838,-177.064 176.641,-178.713"/>
</g>
<!-- trans2 -->
<g id="node9" class="node"><title>trans2</title>
<polygon fill="lightgray" stroke="lightgray" points="427,-227.5 275,-227.5 275,-204.5 427,-204.5 427,-227.5"/>
<text text-anchor="middle" x="351" y="-212.7" font-family="Bookman; Helvetica" font-size="12.00">transform: apply_mask</text>
</g>
<!-- trans2&#45;&gt;cloud_free_ls7_nbar -->
<g id="edge10" class="edge"><title>trans2&#45;&gt;cloud_free_ls7_nbar</title>
<path fill="none" stroke="black" d="M349.391,-204.201C348.399,-196.927 347.082,-187.27 345.835,-178.124"/>
<polygon fill="black" stroke="black" points="349.297,-177.605 344.478,-168.17 342.361,-178.551 349.297,-177.605"/>
</g>
<!-- jux1 -->
<g id="node12" class="node"><title>jux1</title>
<text text-anchor="middle" x="130" y="-278.7" font-family="Bookman; Helvetica" font-size="12.00">(ls8_nbar_albers, ls8_cloud_mask)</text>
</g>
<!-- jux1&#45;&gt;trans1 -->
<g id="edge12" class="edge"><title>jux1&#45;&gt;trans1</title>
<path fill="none" stroke="black" d="M139.291,-263.965C143.633,-255.535 148.828,-245.452 153.331,-236.711"/>
<polygon fill="black" stroke="black" points="156.571,-238.064 158.039,-227.572 150.348,-234.859 156.571,-238.064"/>
</g>
<!-- jux2 -->
<g id="node13" class="node"><title>jux2</title>
<text text-anchor="middle" x="368" y="-278.7" font-family="Bookman; Helvetica" font-size="12.00">(ls7_nbar_albers, ls7_cloud_mask)</text>
</g>
<!-- jux2&#45;&gt;trans2 -->
<g id="edge14" class="edge"><title>jux2&#45;&gt;trans2</title>
<path fill="none" stroke="black" d="M363.355,-263.965C361.23,-255.716 358.698,-245.885 356.48,-237.277"/>
<polygon fill="black" stroke="black" points="359.864,-236.383 353.981,-227.572 353.086,-238.129 359.864,-236.383"/>
</g>
<!-- jux_box_1 -->
<g id="node16" class="node"><title>jux_box_1</title>
<polygon fill="lightgray" stroke="lightgray" points="168,-359.5 92,-359.5 92,-336.5 168,-336.5 168,-359.5"/>
<text text-anchor="middle" x="130" y="-344.7" font-family="Bookman; Helvetica" font-size="12.00">juxtapose</text>
</g>
<!-- jux_box_1&#45;&gt;jux1 -->
<g id="edge16" class="edge"><title>jux_box_1&#45;&gt;jux1</title>
<path fill="none" stroke="black" d="M130,-336.201C130,-329.005 130,-319.478 130,-310.42"/>
<polygon fill="black" stroke="black" points="133.5,-310.17 130,-300.17 126.5,-310.17 133.5,-310.17"/>
</g>
<!-- jux_box_2 -->
<g id="node17" class="node"><title>jux_box_2</title>
<polygon fill="lightgray" stroke="lightgray" points="406,-359.5 330,-359.5 330,-336.5 406,-336.5 406,-359.5"/>
<text text-anchor="middle" x="368" y="-344.7" font-family="Bookman; Helvetica" font-size="12.00">juxtapose</text>
</g>
<!-- jux_box_2&#45;&gt;jux2 -->
<g id="edge18" class="edge"><title>jux_box_2&#45;&gt;jux2</title>
<path fill="none" stroke="black" d="M368,-336.201C368,-329.005 368,-319.478 368,-310.42"/>
<polygon fill="black" stroke="black" points="371.5,-310.17 368,-300.17 364.5,-310.17 371.5,-310.17"/>
</g>
<!-- ls8_nbar_albers -->
<g id="node21" class="node"><title>ls8_nbar_albers</title>
<text text-anchor="middle" x="55" y="-542.7" font-family="Bookman; Helvetica" font-size="12.00">ls8_nbar_albers</text>
</g>
<!-- ls8_nbar_albers&#45;&gt;jux_box_1 -->
<g id="edge21" class="edge"><title>ls8_nbar_albers&#45;&gt;jux_box_1</title>
<path fill="none" stroke="black" d="M56.2844,-527.976C58.9592,-498.828 66.8525,-440.156 89,-396 94.2875,-385.458 102.374,-375.298 109.973,-367.06"/>
<polygon fill="black" stroke="black" points="112.559,-369.421 117.001,-359.803 107.53,-364.552 112.559,-369.421"/>
</g>
<!-- ls7_nbar_albers -->
<g id="node22" class="node"><title>ls7_nbar_albers</title>
<text text-anchor="middle" x="322" y="-542.7" font-family="Bookman; Helvetica" font-size="12.00">ls7_nbar_albers</text>
</g>
<!-- ls7_nbar_albers&#45;&gt;jux_box_2 -->
<g id="edge23" class="edge"><title>ls7_nbar_albers&#45;&gt;jux_box_2</title>
<path fill="none" stroke="black" d="M325.954,-527.96C332.166,-499.76 344.672,-443.534 356,-396 358.049,-387.401 360.39,-377.959 362.457,-369.742"/>
<polygon fill="black" stroke="black" points="365.908,-370.371 364.968,-359.818 359.122,-368.653 365.908,-370.371"/>
</g>
<!-- ls8_pq_albers -->
<g id="node23" class="node"><title>ls8_pq_albers</title>
<text text-anchor="middle" x="177" y="-542.7" font-family="Bookman; Helvetica" font-size="12.00">ls8_pq_albers</text>
</g>
<!-- trans3 -->
<g id="node27" class="node"><title>trans3</title>
<polygon fill="lightgray" stroke="lightgray" points="244,-491.5 92,-491.5 92,-468.5 244,-468.5 244,-491.5"/>
<text text-anchor="middle" x="168" y="-476.7" font-family="Bookman; Helvetica" font-size="12.00">transform: make_mask</text>
</g>
<!-- ls8_pq_albers&#45;&gt;trans3 -->
<g id="edge33" class="edge"><title>ls8_pq_albers&#45;&gt;trans3</title>
<path fill="none" stroke="black" d="M174.541,-527.965C173.428,-519.807 172.105,-510.101 170.94,-501.561"/>
<polygon fill="black" stroke="black" points="174.397,-501.007 169.578,-491.572 167.461,-501.953 174.397,-501.007"/>
</g>
<!-- ls7_pq_albers -->
<g id="node24" class="node"><title>ls7_pq_albers</title>
<text text-anchor="middle" x="444" y="-542.7" font-family="Bookman; Helvetica" font-size="12.00">ls7_pq_albers</text>
</g>
<!-- trans4 -->
<g id="node28" class="node"><title>trans4</title>
<polygon fill="lightgray" stroke="lightgray" points="511,-491.5 359,-491.5 359,-468.5 511,-468.5 511,-491.5"/>
<text text-anchor="middle" x="435" y="-476.7" font-family="Bookman; Helvetica" font-size="12.00">transform: make_mask</text>
</g>
<!-- ls7_pq_albers&#45;&gt;trans4 -->
<g id="edge35" class="edge"><title>ls7_pq_albers&#45;&gt;trans4</title>
<path fill="none" stroke="black" d="M441.541,-527.965C440.428,-519.807 439.105,-510.101 437.94,-501.561"/>
<polygon fill="black" stroke="black" points="441.397,-501.007 436.578,-491.572 434.461,-501.953 441.397,-501.007"/>
</g>
<!-- ls8_cloud_mask -->
<g id="node29" class="node"><title>ls8_cloud_mask</title>
<text text-anchor="middle" x="153" y="-410.7" font-family="Bookman; Helvetica" font-size="12.00">ls8_cloud_mask</text>
</g>
<!-- trans3&#45;&gt;ls8_cloud_mask -->
<g id="edge25" class="edge"><title>trans3&#45;&gt;ls8_cloud_mask</title>
<path fill="none" stroke="black" d="M165.318,-468.201C163.665,-460.927 161.471,-451.27 159.392,-442.124"/>
<polygon fill="black" stroke="black" points="162.759,-441.146 157.13,-432.17 155.933,-442.697 162.759,-441.146"/>
</g>
<!-- ls7_cloud_mask -->
<g id="node30" class="node"><title>ls7_cloud_mask</title>
<text text-anchor="middle" x="420" y="-410.7" font-family="Bookman; Helvetica" font-size="12.00">ls7_cloud_mask</text>
</g>
<!-- trans4&#45;&gt;ls7_cloud_mask -->
<g id="edge29" class="edge"><title>trans4&#45;&gt;ls7_cloud_mask</title>
<path fill="none" stroke="black" d="M432.318,-468.201C430.665,-460.927 428.471,-451.27 426.392,-442.124"/>
<polygon fill="black" stroke="black" points="429.759,-441.146 424.13,-432.17 422.933,-442.697 429.759,-441.146"/>
</g>
<!-- ls8_cloud_mask&#45;&gt;jux_box_1 -->
<g id="edge27" class="edge"><title>ls8_cloud_mask&#45;&gt;jux_box_1</title>
<path fill="none" stroke="black" d="M146.715,-395.965C143.841,-387.716 140.414,-377.885 137.415,-369.277"/>
<polygon fill="black" stroke="black" points="140.628,-367.863 134.033,-359.572 134.018,-370.167 140.628,-367.863"/>
</g>
<!-- ls7_cloud_mask&#45;&gt;jux_box_2 -->
<g id="edge31" class="edge"><title>ls7_cloud_mask&#45;&gt;jux_box_2</title>
<path fill="none" stroke="black" d="M405.791,-395.965C398.863,-387.173 390.519,-376.582 383.435,-367.591"/>
<polygon fill="black" stroke="black" points="386.055,-365.261 377.117,-359.572 380.557,-369.593 386.055,-365.261"/>
</g>
</g>
</svg>
