<?xml version="1.0" encoding="UTF-8" standalone="no"?>
<!DOCTYPE svg PUBLIC "-//W3C//DTD SVG 1.1//EN"
 "http://www.w3.org/Graphics/SVG/1.1/DTD/svg11.dtd">
<!-- Generated by graphviz version 2.26.0 (20091210.2329)
 -->
<!-- Title: G Pages: 1 -->
<svg width="460pt" height="126pt"
 viewBox="0.00 0.00 460.00 126.00" xmlns="http://www.w3.org/2000/svg" xmlns:xlink="http://www.w3.org/1999/xlink">
<g id="graph1" class="graph" transform="scale(1 1) rotate(0) translate(4 122)">
<title>G</title>
<polygon fill="white" stroke="white" points="-4,5 -4,-122 457,-122 457,5 -4,5"/>
<!-- prod1 -->
<g id="node1" class="node"><title>prod1</title>
<polygon fill="lightgray" stroke="lightgray" points="10,-93 10,-112 44,-112 44,-93 10,-93"/>
<polygon fill="none" stroke="black" points="10,-93 10,-112 44,-112 44,-93 10,-93"/>
<text text-anchor="start" x="14" y="-99.7" font-family="Bookman; Helvetica" font-size="12.00">Mon</text>
<polygon fill="darkseagreen" stroke="darkseagreen" points="46,-93 46,-112 72,-112 72,-93 46,-93"/>
<polygon fill="none" stroke="black" points="46,-93 46,-112 72,-112 72,-93 46,-93"/>
<text text-anchor="start" x="49" y="-99.7" font-family="Bookman; Helvetica" font-size="12.00">red</text>
<polygon fill="darkseagreen" stroke="darkseagreen" points="74,-93 74,-112 115,-112 115,-93 74,-93"/>
<polygon fill="none" stroke="black" points="74,-93 74,-112 115,-112 115,-93 74,-93"/>
<text text-anchor="start" x="77" y="-99.7" font-family="Bookman; Helvetica" font-size="12.00">green</text>
<polygon fill="darkseagreen" stroke="darkseagreen" points="117,-93 117,-112 150,-112 150,-93 117,-93"/>
<polygon fill="none" stroke="black" points="117,-93 117,-112 150,-112 150,-93 117,-93"/>
<text text-anchor="start" x="120" y="-99.7" font-family="Bookman; Helvetica" font-size="12.00">blue</text>
<polygon fill="lightgray" stroke="lightgray" points="10,-73 10,-91 44,-91 44,-73 10,-73"/>
<polygon fill="none" stroke="black" points="10,-73 10,-91 44,-91 44,-73 10,-73"/>
<text text-anchor="start" x="13.5" y="-79.2" font-family="Bookman; Helvetica" font-size="12.00">Wed</text>
<polygon fill="darkseagreen" stroke="darkseagreen" points="46,-73 46,-91 72,-91 72,-73 46,-73"/>
<polygon fill="none" stroke="black" points="46,-73 46,-91 72,-91 72,-73 46,-73"/>
<text text-anchor="start" x="49" y="-79.2" font-family="Bookman; Helvetica" font-size="12.00">red</text>
<polygon fill="darkseagreen" stroke="darkseagreen" points="74,-73 74,-91 115,-91 115,-73 74,-73"/>
<polygon fill="none" stroke="black" points="74,-73 74,-91 115,-91 115,-73 74,-73"/>
<text text-anchor="start" x="77" y="-79.2" font-family="Bookman; Helvetica" font-size="12.00">green</text>
<polygon fill="darkseagreen" stroke="darkseagreen" points="117,-73 117,-91 150,-91 150,-73 117,-73"/>
<polygon fill="none" stroke="black" points="117,-73 117,-91 150,-91 150,-73 117,-73"/>
<text text-anchor="start" x="120" y="-79.2" font-family="Bookman; Helvetica" font-size="12.00">blue</text>
</g>
<!-- collate -->
<g id="node3" class="node"><title>collate</title>
<polygon fill="lightgray" stroke="lightgray" points="255,-70.5 197,-70.5 197,-47.5 255,-47.5 255,-70.5"/>
<text text-anchor="middle" x="226" y="-55.7" font-family="Bookman; Helvetica" font-size="12.00">collate</text>
</g>
<!-- prod1&#45;&gt;collate -->
<g id="edge2" class="edge"><title>prod1&#45;&gt;collate</title>
<path fill="none" stroke="black" d="M160.261,-74.3091C169.299,-72.2043 178.188,-70.1343 186.365,-68.2301"/>
<polygon fill="black" stroke="black" points="187.354,-71.5935 196.299,-65.9166 185.766,-64.7759 187.354,-71.5935"/>
</g>
<!-- prod2 -->
<g id="node2" class="node"><title>prod2</title>
<polygon fill="lightgray" stroke="lightgray" points="12,-25 12,-44 42,-44 42,-25 12,-25"/>
<polygon fill="none" stroke="black" points="12,-25 12,-44 42,-44 42,-25 12,-25"/>
<text text-anchor="start" x="16" y="-31.7" font-family="Bookman; Helvetica" font-size="12.00">Tue</text>
<polygon fill="none" stroke="black" points="44,-25 44,-44 70,-44 70,-25 44,-25"/>
<text text-anchor="start" x="47" y="-31.7" font-family="Bookman; Helvetica" font-size="12.00">red</text>
<polygon fill="none" stroke="black" points="72,-25 72,-44 113,-44 113,-25 72,-25"/>
<text text-anchor="start" x="75" y="-31.7" font-family="Bookman; Helvetica" font-size="12.00">green</text>
<polygon fill="none" stroke="black" points="115,-25 115,-44 148,-44 148,-25 115,-25"/>
<text text-anchor="start" x="118" y="-31.7" font-family="Bookman; Helvetica" font-size="12.00">blue</text>
<polygon fill="lightgray" stroke="lightgray" points="12,-5 12,-23 42,-23 42,-5 12,-5"/>
<polygon fill="none" stroke="black" points="12,-5 12,-23 42,-23 42,-5 12,-5"/>
<text text-anchor="start" x="15.5" y="-11.2" font-family="Bookman; Helvetica" font-size="12.00">Thu</text>
<polygon fill="none" stroke="black" points="44,-5 44,-23 70,-23 70,-5 44,-5"/>
<text text-anchor="start" x="47" y="-11.2" font-family="Bookman; Helvetica" font-size="12.00">red</text>
<polygon fill="none" stroke="black" points="72,-5 72,-23 113,-23 113,-5 72,-5"/>
<text text-anchor="start" x="75" y="-11.2" font-family="Bookman; Helvetica" font-size="12.00">green</text>
<polygon fill="none" stroke="black" points="115,-5 115,-23 148,-23 148,-5 115,-5"/>
<text text-anchor="start" x="118" y="-11.2" font-family="Bookman; Helvetica" font-size="12.00">blue</text>
</g>
<!-- prod2&#45;&gt;collate -->
<g id="edge4" class="edge"><title>prod2&#45;&gt;collate</title>
<path fill="none" stroke="black" d="M158.129,-43.1944C167.875,-45.464 177.498,-47.7051 186.3,-49.7548"/>
<polygon fill="black" stroke="black" points="185.679,-53.2039 196.213,-52.0632 187.267,-46.3863 185.679,-53.2039"/>
</g>
<!-- prod12 -->
<g id="node6" class="node"><title>prod12</title>
<polygon fill="lightgray" stroke="lightgray" points="302,-79 302,-98 336,-98 336,-79 302,-79"/>
<polygon fill="none" stroke="black" points="302,-79 302,-98 336,-98 336,-79 302,-79"/>
<text text-anchor="start" x="306" y="-85.7" font-family="Bookman; Helvetica" font-size="12.00">Mon</text>
<polygon fill="darkseagreen" stroke="darkseagreen" points="338,-79 338,-98 364,-98 364,-79 338,-79"/>
<polygon fill="none" stroke="black" points="338,-79 338,-98 364,-98 364,-79 338,-79"/>
<text text-anchor="start" x="341" y="-85.7" font-family="Bookman; Helvetica" font-size="12.00">red</text>
<polygon fill="darkseagreen" stroke="darkseagreen" points="366,-79 366,-98 407,-98 407,-79 366,-79"/>
<polygon fill="none" stroke="black" points="366,-79 366,-98 407,-98 407,-79 366,-79"/>
<text text-anchor="start" x="369" y="-85.7" font-family="Bookman; Helvetica" font-size="12.00">green</text>
<polygon fill="darkseagreen" stroke="darkseagreen" points="409,-79 409,-98 442,-98 442,-79 409,-79"/>
<polygon fill="none" stroke="black" points="409,-79 409,-98 442,-98 442,-79 409,-79"/>
<text text-anchor="start" x="412" y="-85.7" font-family="Bookman; Helvetica" font-size="12.00">blue</text>
<polygon fill="lightgray" stroke="lightgray" points="302,-59 302,-77 336,-77 336,-59 302,-59"/>
<polygon fill="none" stroke="black" points="302,-59 302,-77 336,-77 336,-59 302,-59"/>
<text text-anchor="start" x="308" y="-65.2" font-family="Bookman; Helvetica" font-size="12.00">Tue</text>
<polygon fill="none" stroke="black" points="338,-59 338,-77 364,-77 364,-59 338,-59"/>
<text text-anchor="start" x="341" y="-65.2" font-family="Bookman; Helvetica" font-size="12.00">red</text>
<polygon fill="none" stroke="black" points="366,-59 366,-77 407,-77 407,-59 366,-59"/>
<text text-anchor="start" x="369" y="-65.2" font-family="Bookman; Helvetica" font-size="12.00">green</text>
<polygon fill="none" stroke="black" points="409,-59 409,-77 442,-77 442,-59 409,-59"/>
<text text-anchor="start" x="412" y="-65.2" font-family="Bookman; Helvetica" font-size="12.00">blue</text>
<polygon fill="lightgray" stroke="lightgray" points="302,-39 302,-57 336,-57 336,-39 302,-39"/>
<polygon fill="none" stroke="black" points="302,-39 302,-57 336,-57 336,-39 302,-39"/>
<text text-anchor="start" x="305.5" y="-45.2" font-family="Bookman; Helvetica" font-size="12.00">Wed</text>
<polygon fill="darkseagreen" stroke="darkseagreen" points="338,-39 338,-57 364,-57 364,-39 338,-39"/>
<polygon fill="none" stroke="black" points="338,-39 338,-57 364,-57 364,-39 338,-39"/>
<text text-anchor="start" x="341" y="-45.2" font-family="Bookman; Helvetica" font-size="12.00">red</text>
<polygon fill="darkseagreen" stroke="darkseagreen" points="366,-39 366,-57 407,-57 407,-39 366,-39"/>
<polygon fill="none" stroke="black" points="366,-39 366,-57 407,-57 407,-39 366,-39"/>
<text text-anchor="start" x="369" y="-45.2" font-family="Bookman; Helvetica" font-size="12.00">green</text>
<polygon fill="darkseagreen" stroke="darkseagreen" points="409,-39 409,-57 442,-57 442,-39 409,-39"/>
<polygon fill="none" stroke="black" points="409,-39 409,-57 442,-57 442,-39 409,-39"/>
<text text-anchor="start" x="412" y="-45.2" font-family="Bookman; Helvetica" font-size="12.00">blue</text>
<polygon fill="lightgray" stroke="lightgray" points="302,-19 302,-37 336,-37 336,-19 302,-19"/>
<polygon fill="none" stroke="black" points="302,-19 302,-37 336,-37 336,-19 302,-19"/>
<text text-anchor="start" x="307.5" y="-25.2" font-family="Bookman; Helvetica" font-size="12.00">Thu</text>
<polygon fill="none" stroke="black" points="338,-19 338,-37 364,-37 364,-19 338,-19"/>
<text text-anchor="start" x="341" y="-25.2" font-family="Bookman; Helvetica" font-size="12.00">red</text>
<polygon fill="none" stroke="black" points="366,-19 366,-37 407,-37 407,-19 366,-19"/>
<text text-anchor="start" x="369" y="-25.2" font-family="Bookman; Helvetica" font-size="12.00">green</text>
<polygon fill="none" stroke="black" points="409,-19 409,-37 442,-37 442,-19 409,-19"/>
<text text-anchor="start" x="412" y="-25.2" font-family="Bookman; Helvetica" font-size="12.00">blue</text>
</g>
<!-- collate&#45;&gt;prod12 -->
<g id="edge6" class="edge"><title>collate&#45;&gt;prod12</title>
<path fill="none" stroke="black" d="M255.545,-59C263.378,-59 272.259,-59 281.541,-59"/>
<polygon fill="black" stroke="black" points="281.739,-62.5001 291.739,-59 281.739,-55.5001 281.739,-62.5001"/>
</g>
</g>
</svg>
