<?xml version="1.0" encoding="UTF-8" standalone="no"?><svg xmlns="http://www.w3.org/2000/svg" xmlns:xlink="http://www.w3.org/1999/xlink" contentScriptType="application/ecmascript" contentStyleType="text/css" height="818px" preserveAspectRatio="none" style="width:338px;height:818px;" version="1.1" viewBox="0 0 338 818" width="338px" zoomAndPan="magnify"><defs><filter height="300%" id="f1tfqqzwn1tfrf" width="300%" x="-1" y="-1"><feGaussianBlur result="blurOut" stdDeviation="2.0"/><feColorMatrix in="blurOut" result="blurOut2" type="matrix" values="0 0 0 0 0 0 0 0 0 0 0 0 0 0 0 0 0 0 .4 0"/><feOffset dx="4.0" dy="4.0" in="blurOut2" result="blurOut3"/><feBlend in="SourceGraphic" in2="blurOut3" mode="normal"/></filter></defs><g><ellipse cx="160" cy="20" fill="#000000" filter="url(#f1tfqqzwn1tfrf)" rx="10" ry="10" style="stroke: none; stroke-width: 1.0;"/><rect fill="#FEFECE" filter="url(#f1tfqqzwn1tfrf)" height="33.9688" rx="12.5" ry="12.5" style="stroke: #A80036; stroke-width: 1.5;" width="132" x="94" y="50"/><text fill="#000000" font-family="monospace" font-size="12" lengthAdjust="spacingAndGlyphs" textLength="112" x="104" y="71.1387">dc.load(**query)</text><rect fill="#FEFECE" filter="url(#f1tfqqzwn1tfrf)" height="33.9688" rx="12.5" ry="12.5" style="stroke: #A80036; stroke-width: 1.5;" width="95" x="112.5" y="103.9688"/><text fill="#000000" font-family="sans-serif" font-size="12" lengthAdjust="spacingAndGlyphs" textLength="75" x="122.5" y="125.1074">Parse query</text><rect fill="#FEFECE" filter="url(#f1tfqqzwn1tfrf)" height="33.9688" rx="12.5" ry="12.5" style="stroke: #A80036; stroke-width: 1.5;" width="231" x="44.5" y="157.9375"/><text fill="#000000" font-family="sans-serif" font-size="12" lengthAdjust="spacingAndGlyphs" textLength="88" x="54.5" y="179.0762">Find matching</text><text fill="#000000" font-family="monospace" font-size="12" lengthAdjust="spacingAndGlyphs" textLength="112" x="146.5" y="179.0762">datacube.Dataset</text><text fill="#000000" font-family="sans-serif" font-size="12" lengthAdjust="spacingAndGlyphs" textLength="7" x="258.5" y="179.0762">s</text><polygon fill="#FEFECE" filter="url(#f1tfqqzwn1tfrf)" points="80.5,211.9063,239.5,211.9063,251.5,223.9063,239.5,235.9063,80.5,235.9063,68.5,223.9063,80.5,211.9063" style="stroke: #A80036; stroke-width: 1.5;"/><text fill="#000000" font-family="sans-serif" font-size="11" lengthAdjust="spacingAndGlyphs" textLength="159" x="80.5" y="227.7144">User defined area in query?</text><text fill="#000000" font-family="sans-serif" font-size="11" lengthAdjust="spacingAndGlyphs" textLength="20" x="48.5" y="221.312">yes</text><text fill="#000000" font-family="sans-serif" font-size="11" lengthAdjust="spacingAndGlyphs" textLength="14" x="251.5" y="221.312">no</text><rect fill="#FEFECE" filter="url(#f1tfqqzwn1tfrf)" height="47.9375" rx="12.5" ry="12.5" style="stroke: #A80036; stroke-width: 1.5;" width="97" x="10" y="245.9063"/><text fill="#000000" font-family="sans-serif" font-size="12" lengthAdjust="spacingAndGlyphs" textLength="77" x="20" y="267.0449">Use polygon</text><text fill="#000000" font-family="sans-serif" font-size="12" lengthAdjust="spacingAndGlyphs" textLength="60" x="20" y="281.0137">from user</text><rect fill="#FEFECE" filter="url(#f1tfqqzwn1tfrf)" height="47.9375" rx="12.5" ry="12.5" style="stroke: #A80036; stroke-width: 1.5;" width="131" x="196" y="245.9063"/><text fill="#000000" font-family="sans-serif" font-size="12" lengthAdjust="spacingAndGlyphs" textLength="111" x="206" y="267.0449">Calculate polygon</text><text fill="#000000" font-family="sans-serif" font-size="12" lengthAdjust="spacingAndGlyphs" textLength="107" x="206" y="281.0137">from all Datasets</text><polygon fill="#FEFECE" filter="url(#f1tfqqzwn1tfrf)" points="160,299.8438,172,311.8438,160,323.8438,148,311.8438,160,299.8438" style="stroke: #A80036; stroke-width: 1.5;"/><rect fill="#FEFECE" filter="url(#f1tfqqzwn1tfrf)" height="33.9688" rx="12.5" ry="12.5" style="stroke: #A80036; stroke-width: 1.5;" width="167" x="76.5" y="343.8438"/><text fill="#000000" font-family="sans-serif" font-size="12" lengthAdjust="spacingAndGlyphs" textLength="38" x="86.5" y="364.9824">Group</text><text fill="#000000" font-family="monospace" font-size="12" lengthAdjust="spacingAndGlyphs" textLength="56" x="128.5" y="364.9824">Datasets</text><text fill="#000000" font-family="sans-serif" font-size="12" lengthAdjust="spacingAndGlyphs" textLength="45" x="188.5" y="364.9824">by time</text><rect fill="#FFFFFF" filter="url(#f1tfqqzwn1tfrf)" height="325.3691" style="stroke: #000000; stroke-width: 2.0;" width="250" x="35" y="388.6143"/><path d="M145,389.6143 L145,397.9111 L135,407.9111 L35,407.9111 " fill="none" style="stroke: #000000; stroke-width: 2.0;"/><text fill="#000000" font-family="sans-serif" font-size="14" lengthAdjust="spacingAndGlyphs" textLength="100" x="38" y="402.6094">For each Band</text><rect fill="#FEFECE" filter="url(#f1tfqqzwn1tfrf)" height="33.9688" rx="12.5" ry="12.5" style="stroke: #A80036; stroke-width: 1.5;" width="144" x="88" y="424.9111"/><text fill="#000000" font-family="sans-serif" font-size="12" lengthAdjust="spacingAndGlyphs" textLength="124" x="98" y="446.0498">Create output array</text><rect fill="#FFFFFF" filter="url(#f1tfqqzwn1tfrf)" height="232.3018" style="stroke: #000000; stroke-width: 2.0;" width="230" x="45" y="469.6816"/><path d="M153,470.6816 L153,478.9785 L143,488.9785 L45,488.9785 " fill="none" style="stroke: #000000; stroke-width: 2.0;"/><text fill="#000000" font-family="sans-serif" font-size="14" lengthAdjust="spacingAndGlyphs" textLength="98" x="48" y="483.6768">For each Time</text><rect fill="#FFFFFF" filter="url(#f1tfqqzwn1tfrf)" height="136.2344" style="stroke: #000000; stroke-width: 2.0;" width="210" x="55" y="499.7803"/><path d="M183,500.7803 L183,509.0771 L173,519.0771 L55,519.0771 " fill="none" style="stroke: #000000; stroke-width: 2.0;"/><text fill="#000000" font-family="sans-serif" font-size="14" lengthAdjust="spacingAndGlyphs" textLength="118" x="58" y="513.7754">For each Dataset</text><rect fill="#FEFECE" filter="url(#f1tfqqzwn1tfrf)" height="33.9688" rx="12.5" ry="12.5" style="stroke: #A80036; stroke-width: 1.5;" width="190" x="65" y="536.0771"/><text fill="#000000" font-family="sans-serif" font-size="12" lengthAdjust="spacingAndGlyphs" textLength="170" x="75" y="557.2158">Load portion Data from File</text><rect fill="#FEFECE" filter="url(#f1tfqqzwn1tfrf)" height="33.9688" rx="12.5" ry="12.5" style="stroke: #A80036; stroke-width: 1.5;" width="114" x="103" y="590.0459"/><text fill="#000000" font-family="sans-serif" font-size="12" lengthAdjust="spacingAndGlyphs" textLength="94" x="113" y="611.1846">Fuse into Array</text><rect fill="#FEFECE" filter="url(#f1tfqqzwn1tfrf)" height="33.9688" rx="12.5" ry="12.5" style="stroke: #A80036; stroke-width: 1.5;" width="160" x="80" y="656.0146"/><text fill="#000000" font-family="sans-serif" font-size="12" lengthAdjust="spacingAndGlyphs" textLength="140" x="90" y="677.1533">Copy into output array</text><rect fill="#FEFECE" filter="url(#f1tfqqzwn1tfrf)" height="33.9688" rx="12.5" ry="12.5" style="stroke: #A80036; stroke-width: 1.5;" width="226" x="47" y="733.9834"/><text fill="#000000" font-family="sans-serif" font-size="12" lengthAdjust="spacingAndGlyphs" textLength="104" x="57" y="755.1221">Return arrays as</text><text fill="#000000" font-family="monospace" font-size="12" lengthAdjust="spacingAndGlyphs" textLength="98" x="165" y="755.1221">xarray.Dataset</text><ellipse cx="160" cy="797.9521" fill="none" filter="url(#f1tfqqzwn1tfrf)" rx="10" ry="10" style="stroke: #000000; stroke-width: 1.0;"/><ellipse cx="160.5" cy="798.4521" fill="#000000" filter="url(#f1tfqqzwn1tfrf)" rx="6" ry="6" style="stroke: none; stroke-width: 1.0;"/><line style="stroke: #A80036; stroke-width: 1.5;" x1="160" x2="160" y1="30" y2="50"/><polygon fill="#A80036" points="156,40,160,50,164,40,160,44" style="stroke: #A80036; stroke-width: 1.0;"/><line style="stroke: #A80036; stroke-width: 1.5;" x1="160" x2="160" y1="83.9688" y2="103.9688"/><polygon fill="#A80036" points="156,93.9688,160,103.9688,164,93.9688,160,97.9688" style="stroke: #A80036; stroke-width: 1.0;"/><line style="stroke: #A80036; stroke-width: 1.5;" x1="160" x2="160" y1="137.9375" y2="157.9375"/><polygon fill="#A80036" points="156,147.9375,160,157.9375,164,147.9375,160,151.9375" style="stroke: #A80036; stroke-width: 1.0;"/><line style="stroke: #A80036; stroke-width: 1.5;" x1="68.5" x2="58.5" y1="223.9063" y2="223.9063"/><line style="stroke: #A80036; stroke-width: 1.5;" x1="58.5" x2="58.5" y1="223.9063" y2="245.9063"/><polygon fill="#A80036" points="54.5,235.9063,58.5,245.9063,62.5,235.9063,58.5,239.9063" style="stroke: #A80036; stroke-width: 1.0;"/><line style="stroke: #A80036; stroke-width: 1.5;" x1="251.5" x2="261.5" y1="223.9063" y2="223.9063"/><line style="stroke: #A80036; stroke-width: 1.5;" x1="261.5" x2="261.5" y1="223.9063" y2="245.9063"/><polygon fill="#A80036" points="257.5,235.9063,261.5,245.9063,265.5,235.9063,261.5,239.9063" style="stroke: #A80036; stroke-width: 1.0;"/><line style="stroke: #A80036; stroke-width: 1.5;" x1="58.5" x2="58.5" y1="293.8438" y2="311.8438"/><line style="stroke: #A80036; stroke-width: 1.5;" x1="58.5" x2="148" y1="311.8438" y2="311.8438"/><polygon fill="#A80036" points="138,307.8438,148,311.8438,138,315.8438,142,311.8438" style="stroke: #A80036; stroke-width: 1.0;"/><line style="stroke: #A80036; stroke-width: 1.5;" x1="261.5" x2="261.5" y1="293.8438" y2="311.8438"/><line style="stroke: #A80036; stroke-width: 1.5;" x1="261.5" x2="172" y1="311.8438" y2="311.8438"/><polygon fill="#A80036" points="182,307.8438,172,311.8438,182,315.8438,178,311.8438" style="stroke: #A80036; stroke-width: 1.0;"/><line style="stroke: #A80036; stroke-width: 1.5;" x1="160" x2="160" y1="191.9063" y2="211.9063"/><polygon fill="#A80036" points="156,201.9063,160,211.9063,164,201.9063,160,205.9063" style="stroke: #A80036; stroke-width: 1.0;"/><line style="stroke: #A80036; stroke-width: 1.5;" x1="160" x2="160" y1="323.8438" y2="343.8438"/><polygon fill="#A80036" points="156,333.8438,160,343.8438,164,333.8438,160,337.8438" style="stroke: #A80036; stroke-width: 1.0;"/><line style="stroke: #A80036; stroke-width: 1.5;" x1="160" x2="160" y1="570.0459" y2="590.0459"/><polygon fill="#A80036" points="156,580.0459,160,590.0459,164,580.0459,160,584.0459" style="stroke: #A80036; stroke-width: 1.0;"/><line style="stroke: #A80036; stroke-width: 1.5;" x1="160" x2="160" y1="624.0146" y2="656.0146"/><polygon fill="#A80036" points="156,646.0146,160,656.0146,164,646.0146,160,650.0146" style="stroke: #A80036; stroke-width: 1.0;"/><line style="stroke: #A80036; stroke-width: 1.5;" x1="160" x2="160" y1="458.8799" y2="536.0771"/><polygon fill="#A80036" points="156,526.0771,160,536.0771,164,526.0771,160,530.0771" style="stroke: #A80036; stroke-width: 1.0;"/><line style="stroke: #A80036; stroke-width: 1.5;" x1="160" x2="160" y1="377.8125" y2="424.9111"/><polygon fill="#A80036" points="156,414.9111,160,424.9111,164,414.9111,160,418.9111" style="stroke: #A80036; stroke-width: 1.0;"/><line style="stroke: #A80036; stroke-width: 1.5;" x1="160" x2="160" y1="689.9834" y2="733.9834"/><polygon fill="#A80036" points="156,723.9834,160,733.9834,164,723.9834,160,727.9834" style="stroke: #A80036; stroke-width: 1.0;"/><line style="stroke: #A80036; stroke-width: 1.5;" x1="160" x2="160" y1="767.9521" y2="787.9521"/><polygon fill="#A80036" points="156,777.9521,160,787.9521,164,777.9521,160,781.9521" style="stroke: #A80036; stroke-width: 1.0;"/><!--
@startuml

start
:""dc.load(**query)"";
:Parse query;
:Find matching ""datacube.Dataset""s;
if (User defined area in query?) then (yes)
  :Use polygon\nfrom user;
else (no)
  :Calculate polygon\nfrom all Datasets;
endif

:Group ""Datasets"" by time;

  partition "For each Band" {

:Create output array;
          partition "For each Time" {
            partition "For each Dataset" {
              :Load portion Data from File;
              :Fuse into Array;
              }
            :Copy into output array;
      }
  }
:Return arrays as ""xarray.Dataset"";
stop

@enduml

PlantUML version 1.2018.13(Tue Nov 27 04:11:51 AEDT 2018)
(GPL source distribution)
Java Runtime: OpenJDK Runtime Environment
JVM: OpenJDK 64-Bit Server VM
Java Version: 11.0.7+10-post-Ubuntu-3ubuntu1
Operating System: Linux
OS Version: 5.4.0-1012-azure
Default Encoding: UTF-8
Language: en
Country: AU
--></g></svg>
