<?xml version="1.0" encoding="UTF-8" standalone="no"?>
<!DOCTYPE svg PUBLIC "-//W3C//DTD SVG 1.1//EN"
 "http://www.w3.org/Graphics/SVG/1.1/DTD/svg11.dtd">
<!-- Generated by graphviz version 2.26.0 (20091210.2329)
 -->
<!-- Title: G Pages: 1 -->
<svg width="556pt" height="146pt"
 viewBox="0.00 0.00 556.00 146.00" xmlns="http://www.w3.org/2000/svg" xmlns:xlink="http://www.w3.org/1999/xlink">
<g id="graph1" class="graph" transform="scale(1 1) rotate(0) translate(4 142)">
<title>G</title>
<polygon fill="white" stroke="white" points="-4,5 -4,-142 553,-142 553,5 -4,5"/>
<!-- prod1 -->
<g id="node1" class="node"><title>prod1</title>
<polygon fill="lightgray" stroke="lightgray" points="10,-113 10,-132 44,-132 44,-113 10,-113"/>
<polygon fill="none" stroke="black" points="10,-113 10,-132 44,-132 44,-113 10,-113"/>
<text text-anchor="start" x="14" y="-119.7" font-family="Bookman; Helvetica" font-size="12.00">Mon</text>
<polygon fill="darkseagreen" stroke="darkseagreen" points="46,-113 46,-132 72,-132 72,-113 46,-113"/>
<polygon fill="none" stroke="black" points="46,-113 46,-132 72,-132 72,-113 46,-113"/>
<text text-anchor="start" x="49" y="-119.7" font-family="Bookman; Helvetica" font-size="12.00">red</text>
<polygon fill="darkseagreen" stroke="darkseagreen" points="74,-113 74,-132 115,-132 115,-113 74,-113"/>
<polygon fill="none" stroke="black" points="74,-113 74,-132 115,-132 115,-113 74,-113"/>
<text text-anchor="start" x="77" y="-119.7" font-family="Bookman; Helvetica" font-size="12.00">green</text>
<polygon fill="darkseagreen" stroke="darkseagreen" points="117,-113 117,-132 150,-132 150,-113 117,-113"/>
<polygon fill="none" stroke="black" points="117,-113 117,-132 150,-132 150,-113 117,-113"/>
<text text-anchor="start" x="120" y="-119.7" font-family="Bookman; Helvetica" font-size="12.00">blue</text>
<polygon fill="lightgray" stroke="lightgray" points="10,-93 10,-111 44,-111 44,-93 10,-93"/>
<polygon fill="none" stroke="black" points="10,-93 10,-111 44,-111 44,-93 10,-93"/>
<text text-anchor="start" x="16" y="-99.2" font-family="Bookman; Helvetica" font-size="12.00">Tue</text>
<polygon fill="none" stroke="black" points="46,-93 46,-111 72,-111 72,-93 46,-93"/>
<text text-anchor="start" x="49" y="-99.2" font-family="Bookman; Helvetica" font-size="12.00">red</text>
<polygon fill="none" stroke="black" points="74,-93 74,-111 115,-111 115,-93 74,-93"/>
<text text-anchor="start" x="77" y="-99.2" font-family="Bookman; Helvetica" font-size="12.00">green</text>
<polygon fill="none" stroke="black" points="117,-93 117,-111 150,-111 150,-93 117,-93"/>
<text text-anchor="start" x="120" y="-99.2" font-family="Bookman; Helvetica" font-size="12.00">blue</text>
<polygon fill="lightgray" stroke="lightgray" points="10,-73 10,-91 44,-91 44,-73 10,-73"/>
<polygon fill="none" stroke="black" points="10,-73 10,-91 44,-91 44,-73 10,-73"/>
<text text-anchor="start" x="13.5" y="-79.2" font-family="Bookman; Helvetica" font-size="12.00">Wed</text>
<polygon fill="burlywood" stroke="burlywood" points="46,-73 46,-91 72,-91 72,-73 46,-73"/>
<polygon fill="none" stroke="black" points="46,-73 46,-91 72,-91 72,-73 46,-73"/>
<text text-anchor="start" x="49" y="-79.2" font-family="Bookman; Helvetica" font-size="12.00">red</text>
<polygon fill="burlywood" stroke="burlywood" points="74,-73 74,-91 115,-91 115,-73 74,-73"/>
<polygon fill="none" stroke="black" points="74,-73 74,-91 115,-91 115,-73 74,-73"/>
<text text-anchor="start" x="77" y="-79.2" font-family="Bookman; Helvetica" font-size="12.00">green</text>
<polygon fill="burlywood" stroke="burlywood" points="117,-73 117,-91 150,-91 150,-73 117,-73"/>
<polygon fill="none" stroke="black" points="117,-73 117,-91 150,-91 150,-73 117,-73"/>
<text text-anchor="start" x="120" y="-79.2" font-family="Bookman; Helvetica" font-size="12.00">blue</text>
</g>
<!-- juxtapose -->
<g id="node3" class="node"><title>juxtapose</title>
<polygon fill="lightgray" stroke="lightgray" points="272,-75.5 196,-75.5 196,-52.5 272,-52.5 272,-75.5"/>
<text text-anchor="middle" x="234" y="-60.7" font-family="Bookman; Helvetica" font-size="12.00">juxtapose</text>
</g>
<!-- prod1&#45;&gt;juxtapose -->
<g id="edge2" class="edge"><title>prod1&#45;&gt;juxtapose</title>
<path fill="none" stroke="black" d="M160.157,-82.7004C168.99,-80.4635 177.768,-78.2406 186.024,-76.1498"/>
<polygon fill="black" stroke="black" points="186.97,-79.5209 195.804,-73.6729 185.251,-72.7351 186.97,-79.5209"/>
</g>
<!-- prod2 -->
<g id="node2" class="node"><title>prod2</title>
<polygon fill="lightgray" stroke="lightgray" points="23,-25 23,-44 57,-44 57,-25 23,-25"/>
<polygon fill="none" stroke="black" points="23,-25 23,-44 57,-44 57,-25 23,-25"/>
<text text-anchor="start" x="27" y="-31.7" font-family="Bookman; Helvetica" font-size="12.00">Mon</text>
<polygon fill="darkseagreen" stroke="darkseagreen" points="59,-25 59,-44 137,-44 137,-25 59,-25"/>
<polygon fill="none" stroke="black" points="59,-25 59,-44 137,-44 137,-25 59,-25"/>
<text text-anchor="start" x="62" y="-31.7" font-family="Bookman; Helvetica" font-size="12.00">pixelquality</text>
<polygon fill="lightgray" stroke="lightgray" points="23,-5 23,-23 57,-23 57,-5 23,-5"/>
<polygon fill="none" stroke="black" points="23,-5 23,-23 57,-23 57,-5 23,-5"/>
<text text-anchor="start" x="26.5" y="-11.2" font-family="Bookman; Helvetica" font-size="12.00">Wed</text>
<polygon fill="burlywood" stroke="burlywood" points="59,-5 59,-23 137,-23 137,-5 59,-5"/>
<polygon fill="none" stroke="black" points="59,-5 59,-23 137,-23 137,-5 59,-5"/>
<text text-anchor="start" x="62" y="-11.2" font-family="Bookman; Helvetica" font-size="12.00">pixelquality</text>
</g>
<!-- prod2&#45;&gt;juxtapose -->
<g id="edge4" class="edge"><title>prod2&#45;&gt;juxtapose</title>
<path fill="none" stroke="black" d="M147.099,-41.9925C160.143,-45.296 173.574,-48.6972 185.858,-51.8082"/>
<polygon fill="black" stroke="black" points="185.321,-55.2825 195.874,-54.3447 187.039,-48.4967 185.321,-55.2825"/>
</g>
<!-- prod12 -->
<g id="node6" class="node"><title>prod12</title>
<polygon fill="lightgray" stroke="lightgray" points="318,-64 318,-83 352,-83 352,-64 318,-64"/>
<polygon fill="none" stroke="black" points="318,-64 318,-83 352,-83 352,-64 318,-64"/>
<text text-anchor="start" x="322" y="-70.7" font-family="Bookman; Helvetica" font-size="12.00">Mon</text>
<polygon fill="darkseagreen" stroke="darkseagreen" points="354,-64 354,-83 380,-83 380,-64 354,-64"/>
<polygon fill="none" stroke="black" points="354,-64 354,-83 380,-83 380,-64 354,-64"/>
<text text-anchor="start" x="357" y="-70.7" font-family="Bookman; Helvetica" font-size="12.00">red</text>
<polygon fill="darkseagreen" stroke="darkseagreen" points="382,-64 382,-83 423,-83 423,-64 382,-64"/>
<polygon fill="none" stroke="black" points="382,-64 382,-83 423,-83 423,-64 382,-64"/>
<text text-anchor="start" x="385" y="-70.7" font-family="Bookman; Helvetica" font-size="12.00">green</text>
<polygon fill="darkseagreen" stroke="darkseagreen" points="425,-64 425,-83 458,-83 458,-64 425,-64"/>
<polygon fill="none" stroke="black" points="425,-64 425,-83 458,-83 458,-64 425,-64"/>
<text text-anchor="start" x="428" y="-70.7" font-family="Bookman; Helvetica" font-size="12.00">blue</text>
<polygon fill="darkseagreen" stroke="darkseagreen" points="460,-64 460,-83 538,-83 538,-64 460,-64"/>
<polygon fill="none" stroke="black" points="460,-64 460,-83 538,-83 538,-64 460,-64"/>
<text text-anchor="start" x="463" y="-70.7" font-family="Bookman; Helvetica" font-size="12.00">pixelquality</text>
<polygon fill="lightgray" stroke="lightgray" points="318,-44 318,-62 352,-62 352,-44 318,-44"/>
<polygon fill="none" stroke="black" points="318,-44 318,-62 352,-62 352,-44 318,-44"/>
<text text-anchor="start" x="321.5" y="-50.2" font-family="Bookman; Helvetica" font-size="12.00">Wed</text>
<polygon fill="burlywood" stroke="burlywood" points="354,-44 354,-62 380,-62 380,-44 354,-44"/>
<polygon fill="none" stroke="black" points="354,-44 354,-62 380,-62 380,-44 354,-44"/>
<text text-anchor="start" x="357" y="-50.2" font-family="Bookman; Helvetica" font-size="12.00">red</text>
<polygon fill="burlywood" stroke="burlywood" points="382,-44 382,-62 423,-62 423,-44 382,-44"/>
<polygon fill="none" stroke="black" points="382,-44 382,-62 423,-62 423,-44 382,-44"/>
<text text-anchor="start" x="385" y="-50.2" font-family="Bookman; Helvetica" font-size="12.00">green</text>
<polygon fill="burlywood" stroke="burlywood" points="425,-44 425,-62 458,-62 458,-44 425,-44"/>
<polygon fill="none" stroke="black" points="425,-44 425,-62 458,-62 458,-44 425,-44"/>
<text text-anchor="start" x="428" y="-50.2" font-family="Bookman; Helvetica" font-size="12.00">blue</text>
<polygon fill="burlywood" stroke="burlywood" points="460,-44 460,-62 538,-62 538,-44 460,-44"/>
<polygon fill="none" stroke="black" points="460,-44 460,-62 538,-62 538,-44 460,-44"/>
<text text-anchor="start" x="463" y="-50.2" font-family="Bookman; Helvetica" font-size="12.00">pixelquality</text>
</g>
<!-- juxtapose&#45;&gt;prod12 -->
<g id="edge6" class="edge"><title>juxtapose&#45;&gt;prod12</title>
<path fill="none" stroke="black" d="M272.328,-64C280.03,-64 288.523,-64 297.448,-64"/>
<polygon fill="black" stroke="black" points="297.689,-67.5001 307.689,-64 297.689,-60.5001 297.689,-67.5001"/>
</g>
</g>
</svg>
