<?xml version="1.0" encoding="UTF-8" standalone="no"?><svg xmlns="http://www.w3.org/2000/svg" xmlns:xlink="http://www.w3.org/1999/xlink" contentScriptType="application/ecmascript" contentStyleType="text/css" height="832px" preserveAspectRatio="none" style="width:1322px;height:832px;" version="1.1" viewBox="0 0 1322 832" width="1322px" zoomAndPan="magnify"><defs><filter height="300%" id="f55vxpjtps976" width="300%" x="-1" y="-1"><feGaussianBlur result="blurOut" stdDeviation="2.0"/><feColorMatrix in="blurOut" result="blurOut2" type="matrix" values="0 0 0 0 0 0 0 0 0 0 0 0 0 0 0 0 0 0 .4 0"/><feOffset dx="4.0" dy="4.0" in="blurOut2" result="blurOut3"/><feBlend in="SourceGraphic" in2="blurOut3" mode="normal"/></filter></defs><g><!--cluster VDI--><polygon fill="#FFFFFF" filter="url(#f55vxpjtps976)" points="780,135,812,135,819,157.2969,1087,157.2969,1087,222,780,222,780,135" style="stroke: #000000; stroke-width: 1.5;"/><line style="stroke: #000000; stroke-width: 1.5;" x1="780" x2="819" y1="157.2969" y2="157.2969"/><text fill="#000000" font-family="sans-serif" font-size="14" font-weight="bold" lengthAdjust="spacingAndGlyphs" textLength="26" x="784" y="149.9951">VDI</text><!--cluster Web Services--><polygon fill="#FFFFFF" filter="url(#f55vxpjtps976)" points="22,135,136,135,143,157.2969,533,157.2969,533,222,22,222,22,135" style="stroke: #000000; stroke-width: 1.5;"/><line style="stroke: #000000; stroke-width: 1.5;" x1="22" x2="143" y1="157.2969" y2="157.2969"/><text fill="#000000" font-family="sans-serif" font-size="14" font-weight="bold" lengthAdjust="spacingAndGlyphs" textLength="108" x="26" y="149.9951">Web Services</text><!--cluster Raijin Apps--><polygon fill="#FFFFFF" filter="url(#f55vxpjtps976)" points="406,24,498,24,505,46.2969,798,46.2969,798,111,406,111,406,24" style="stroke: #000000; stroke-width: 1.5;"/><line style="stroke: #000000; stroke-width: 1.5;" x1="406" x2="505" y1="46.2969" y2="46.2969"/><text fill="#000000" font-family="sans-serif" font-size="14" font-weight="bold" lengthAdjust="spacingAndGlyphs" textLength="86" x="410" y="38.9951">Raijin Apps</text><!--cluster Datacube Core--><polygon fill="#FFFFFF" filter="url(#f55vxpjtps976)" points="557,135,680,135,687,157.2969,756,157.2969,756,492,557,492,557,135" style="stroke: #000000; stroke-width: 1.5;"/><line style="stroke: #000000; stroke-width: 1.5;" x1="557" x2="687" y1="157.2969" y2="157.2969"/><text fill="#000000" font-family="sans-serif" font-size="14" font-weight="bold" lengthAdjust="spacingAndGlyphs" textLength="117" x="561" y="149.9951">Datacube Core</text><!--cluster NCI--><polygon fill="#FFFFFF" filter="url(#f55vxpjtps976)" points="915,516,947,516,954,538.2969,1300,538.2969,1300,820,915,820,915,516" style="stroke: #000000; stroke-width: 1.5;"/><line style="stroke: #000000; stroke-width: 1.5;" x1="915" x2="954" y1="538.2969" y2="538.2969"/><text fill="#000000" font-family="sans-serif" font-size="14" font-weight="bold" lengthAdjust="spacingAndGlyphs" textLength="26" x="919" y="530.9951">NCI</text><!--cluster /g/data/--><polygon fill="#FFFFFF" filter="url(#f55vxpjtps976)" points="939,709,1004,709,1011,731.2969,1079,731.2969,1079,796,939,796,939,709" style="stroke: #000000; stroke-width: 1.5;"/><line style="stroke: #000000; stroke-width: 1.5;" x1="939" x2="1011" y1="731.2969" y2="731.2969"/><text fill="#000000" font-family="sans-serif" font-size="14" font-weight="bold" lengthAdjust="spacingAndGlyphs" textLength="59" x="943" y="723.9951">/g/data/</text><!--cluster Database Server--><path d="M1129,569 C1129,559 1202.5,559 1202.5,559 C1202.5,559 1276,559 1276,569 L1276,651 C1276,661 1202.5,661 1202.5,661 C1202.5,661 1129,661 1129,651 L1129,569 " fill="#FFFFFF" filter="url(#f55vxpjtps976)" style="stroke: #000000; stroke-width: 1.5;"/><path d="M1129,569 C1129,579 1202.5,579 1202.5,579 C1202.5,579 1276,579 1276,569 " fill="none" style="stroke: #000000; stroke-width: 1.5;"/><text fill="#000000" font-family="sans-serif" font-size="14" font-weight="bold" lengthAdjust="spacingAndGlyphs" textLength="131" x="1137" y="593.9951">Database Server</text><!--cluster Cloud--><polygon fill="#FFFFFF" filter="url(#f55vxpjtps976)" points="403,516,454,516,461,538.2969,891,538.2969,891,685,403,685,403,516" style="stroke: #000000; stroke-width: 1.5;"/><line style="stroke: #000000; stroke-width: 1.5;" x1="403" x2="461" y1="538.2969" y2="538.2969"/><text fill="#000000" font-family="sans-serif" font-size="14" font-weight="bold" lengthAdjust="spacingAndGlyphs" textLength="45" x="407" y="530.9951">Cloud</text><!--cluster bucket--><polygon fill="#FFFFFF" filter="url(#f55vxpjtps976)" points="427,574,487,574,494,596.2969,661,596.2969,661,661,427,661,427,574" style="stroke: #000000; stroke-width: 1.5;"/><line style="stroke: #000000; stroke-width: 1.5;" x1="427" x2="494" y1="596.2969" y2="596.2969"/><text fill="#000000" font-family="sans-serif" font-size="14" font-weight="bold" lengthAdjust="spacingAndGlyphs" textLength="54" x="431" y="588.9951">bucket</text><!--cluster Database Service--><path d="M685,569 C685,559 776,559 776,559 C776,559 867,559 867,569 L867,651 C867,661 776,661 776,661 C776,661 685,661 685,651 L685,569 " fill="#FFFFFF" filter="url(#f55vxpjtps976)" style="stroke: #000000; stroke-width: 1.5;"/><path d="M685,569 C685,579 776,579 776,579 C776,579 867,579 867,569 " fill="none" style="stroke: #000000; stroke-width: 1.5;"/><text fill="#000000" font-family="sans-serif" font-size="14" font-weight="bold" lengthAdjust="spacingAndGlyphs" textLength="137" x="707.5" y="593.9951">Database Service</text><!--entity Jupyter Notebook--><rect fill="#FEFECE" filter="url(#f55vxpjtps976)" height="36.2969" style="stroke: #A80036; stroke-width: 1.5;" width="139" x="931.5" y="170"/><rect fill="#FEFECE" height="5" style="stroke: #A80036; stroke-width: 1.5;" width="10" x="926.5" y="175"/><rect fill="#FEFECE" height="5" style="stroke: #A80036; stroke-width: 1.5;" width="10" x="926.5" y="196.2969"/><text fill="#000000" font-family="sans-serif" font-size="14" lengthAdjust="spacingAndGlyphs" textLength="119" x="941.5" y="192.9951">Jupyter Notebook</text><!--entity QGIS Plugin--><rect fill="#FEFECE" filter="url(#f55vxpjtps976)" height="36.2969" style="stroke: #A80036; stroke-width: 1.5;" width="100" x="796" y="170"/><rect fill="#FEFECE" height="5" style="stroke: #A80036; stroke-width: 1.5;" width="10" x="791" y="175"/><rect fill="#FEFECE" height="5" style="stroke: #A80036; stroke-width: 1.5;" width="10" x="791" y="196.2969"/><text fill="#000000" font-family="sans-serif" font-size="14" lengthAdjust="spacingAndGlyphs" textLength="80" x="806" y="192.9951">QGIS Plugin</text><!--entity datacube-wms--><rect fill="#FEFECE" filter="url(#f55vxpjtps976)" height="36.2969" style="stroke: #A80036; stroke-width: 1.5;" width="122" x="249" y="170"/><rect fill="#FEFECE" height="5" style="stroke: #A80036; stroke-width: 1.5;" width="10" x="244" y="175"/><rect fill="#FEFECE" height="5" style="stroke: #A80036; stroke-width: 1.5;" width="10" x="244" y="196.2969"/><text fill="#000000" font-family="sans-serif" font-size="14" lengthAdjust="spacingAndGlyphs" textLength="102" x="259" y="192.9951">datacube-wms</text><!--entity Web Coverage Service--><rect fill="#FEFECE" filter="url(#f55vxpjtps976)" height="36.2969" style="stroke: #A80036; stroke-width: 1.5;" width="175" x="38.5" y="170"/><rect fill="#FEFECE" height="5" style="stroke: #A80036; stroke-width: 1.5;" width="10" x="33.5" y="175"/><rect fill="#FEFECE" height="5" style="stroke: #A80036; stroke-width: 1.5;" width="10" x="33.5" y="196.2969"/><text fill="#000000" font-family="sans-serif" font-size="14" lengthAdjust="spacingAndGlyphs" textLength="155" x="48.5" y="192.9951">Web Coverage Service</text><!--entity CEOS Web UI--><rect fill="#FEFECE" filter="url(#f55vxpjtps976)" height="36.2969" style="stroke: #A80036; stroke-width: 1.5;" width="111" x="406.5" y="170"/><rect fill="#FEFECE" height="5" style="stroke: #A80036; stroke-width: 1.5;" width="10" x="401.5" y="175"/><rect fill="#FEFECE" height="5" style="stroke: #A80036; stroke-width: 1.5;" width="10" x="401.5" y="196.2969"/><text fill="#000000" font-family="sans-serif" font-size="14" lengthAdjust="spacingAndGlyphs" textLength="91" x="416.5" y="192.9951">CEOS Web UI</text><!--entity Ingester--><rect fill="#FEFECE" filter="url(#f55vxpjtps976)" height="36.2969" style="stroke: #A80036; stroke-width: 1.5;" width="77" x="704.5" y="59"/><rect fill="#FEFECE" height="5" style="stroke: #A80036; stroke-width: 1.5;" width="10" x="699.5" y="64"/><rect fill="#FEFECE" height="5" style="stroke: #A80036; stroke-width: 1.5;" width="10" x="699.5" y="85.2969"/><text fill="#000000" font-family="sans-serif" font-size="14" lengthAdjust="spacingAndGlyphs" textLength="57" x="714.5" y="81.9951">Ingester</text><!--entity Statistics--><rect fill="#FEFECE" filter="url(#f55vxpjtps976)" height="36.2969" style="stroke: #A80036; stroke-width: 1.5;" width="82" x="587" y="59"/><rect fill="#FEFECE" height="5" style="stroke: #A80036; stroke-width: 1.5;" width="10" x="582" y="64"/><rect fill="#FEFECE" height="5" style="stroke: #A80036; stroke-width: 1.5;" width="10" x="582" y="85.2969"/><text fill="#000000" font-family="sans-serif" font-size="14" lengthAdjust="spacingAndGlyphs" textLength="62" x="597" y="81.9951">Statistics</text><!--entity Fractional Cover--><rect fill="#FEFECE" filter="url(#f55vxpjtps976)" height="36.2969" style="stroke: #A80036; stroke-width: 1.5;" width="130" x="422" y="59"/><rect fill="#FEFECE" height="5" style="stroke: #A80036; stroke-width: 1.5;" width="10" x="417" y="64"/><rect fill="#FEFECE" height="5" style="stroke: #A80036; stroke-width: 1.5;" width="10" x="417" y="85.2969"/><text fill="#000000" font-family="sans-serif" font-size="14" lengthAdjust="spacingAndGlyphs" textLength="110" x="432" y="81.9951">Fractional Cover</text><!--entity GridWorkflow--><rect fill="#FEFECE" filter="url(#f55vxpjtps976)" height="36.2969" style="stroke: #A80036; stroke-width: 1.5;" width="110" x="573" y="170"/><rect fill="#FEFECE" height="5" style="stroke: #A80036; stroke-width: 1.5;" width="10" x="568" y="175"/><rect fill="#FEFECE" height="5" style="stroke: #A80036; stroke-width: 1.5;" width="10" x="568" y="196.2969"/><text fill="#000000" font-family="sans-serif" font-size="14" lengthAdjust="spacingAndGlyphs" textLength="90" x="583" y="192.9951">GridWorkflow</text><!--entity Index--><rect fill="#FEFECE" filter="url(#f55vxpjtps976)" height="36.2969" style="stroke: #A80036; stroke-width: 1.5;" width="57" x="682.5" y="440"/><rect fill="#FEFECE" height="5" style="stroke: #A80036; stroke-width: 1.5;" width="10" x="677.5" y="445"/><rect fill="#FEFECE" height="5" style="stroke: #A80036; stroke-width: 1.5;" width="10" x="677.5" y="466.2969"/><text fill="#000000" font-family="sans-serif" font-size="14" lengthAdjust="spacingAndGlyphs" textLength="37" x="692.5" y="462.9951">Index</text><!--entity Storage--><rect fill="#FEFECE" filter="url(#f55vxpjtps976)" height="36.2969" style="stroke: #A80036; stroke-width: 1.5;" width="74" x="573" y="440"/><rect fill="#FEFECE" height="5" style="stroke: #A80036; stroke-width: 1.5;" width="10" x="568" y="445"/><rect fill="#FEFECE" height="5" style="stroke: #A80036; stroke-width: 1.5;" width="10" x="568" y="466.2969"/><text fill="#000000" font-family="sans-serif" font-size="14" lengthAdjust="spacingAndGlyphs" textLength="54" x="583" y="462.9951">Storage</text><!--entity API--><ellipse cx="619" cy="275" fill="#FEFECE" filter="url(#f55vxpjtps976)" rx="8" ry="8" style="stroke: #A80036; stroke-width: 2.0;"/><text fill="#000000" font-family="sans-serif" font-size="14" lengthAdjust="spacingAndGlyphs" textLength="21" x="608.5" y="304.9951">API</text><!--entity Core--><rect fill="#FEFECE" filter="url(#f55vxpjtps976)" height="36.2969" style="stroke: #A80036; stroke-width: 1.5;" width="53" x="592.5" y="344"/><rect fill="#FEFECE" height="5" style="stroke: #A80036; stroke-width: 1.5;" width="10" x="587.5" y="349"/><rect fill="#FEFECE" height="5" style="stroke: #A80036; stroke-width: 1.5;" width="10" x="587.5" y="370.2969"/><text fill="#000000" font-family="sans-serif" font-size="14" lengthAdjust="spacingAndGlyphs" textLength="33" x="602.5" y="366.9951">Core</text><!--entity GSKY--><rect fill="#FEFECE" filter="url(#f55vxpjtps976)" height="36.2969" style="stroke: #A80036; stroke-width: 1.5;" width="58" x="1055" y="609"/><rect fill="#FEFECE" height="5" style="stroke: #A80036; stroke-width: 1.5;" width="10" x="1050" y="614"/><rect fill="#FEFECE" height="5" style="stroke: #A80036; stroke-width: 1.5;" width="10" x="1050" y="635.2969"/><text fill="#000000" font-family="sans-serif" font-size="14" lengthAdjust="spacingAndGlyphs" textLength="38" x="1065" y="631.9951">GSKY</text><!--entity THREDDS--><rect fill="#FEFECE" filter="url(#f55vxpjtps976)" height="36.2969" style="stroke: #A80036; stroke-width: 1.5;" width="89" x="930.5" y="609"/><rect fill="#FEFECE" height="5" style="stroke: #A80036; stroke-width: 1.5;" width="10" x="925.5" y="614"/><rect fill="#FEFECE" height="5" style="stroke: #A80036; stroke-width: 1.5;" width="10" x="925.5" y="635.2969"/><text fill="#000000" font-family="sans-serif" font-size="14" lengthAdjust="spacingAndGlyphs" textLength="69" x="940.5" y="631.9951">THREDDS</text><!--entity MAS--><rect fill="#FEFECE" filter="url(#f55vxpjtps976)" height="36.2969" style="stroke: #A80036; stroke-width: 1.5;" width="50" x="1098" y="744"/><rect fill="#FEFECE" height="5" style="stroke: #A80036; stroke-width: 1.5;" width="10" x="1093" y="749"/><rect fill="#FEFECE" height="5" style="stroke: #A80036; stroke-width: 1.5;" width="10" x="1093" y="770.2969"/><text fill="#000000" font-family="sans-serif" font-size="14" lengthAdjust="spacingAndGlyphs" textLength="30" x="1108" y="766.9951">MAS</text><!--entity NetCDF Files--><rect fill="#FEFECE" filter="url(#f55vxpjtps976)" height="36.2969" style="stroke: #A80036; stroke-width: 1.5;" width="108" x="955" y="744"/><rect fill="#FEFECE" height="5" style="stroke: #A80036; stroke-width: 1.5;" width="10" x="950" y="749"/><rect fill="#FEFECE" height="5" style="stroke: #A80036; stroke-width: 1.5;" width="10" x="950" y="770.2969"/><text fill="#000000" font-family="sans-serif" font-size="14" lengthAdjust="spacingAndGlyphs" textLength="88" x="965" y="766.9951">NetCDF Files</text><!--entity Postgres--><rect fill="#FEFECE" filter="url(#f55vxpjtps976)" height="36.2969" style="stroke: #A80036; stroke-width: 1.5;" width="82" x="1148" y="609"/><rect fill="#FEFECE" height="5" style="stroke: #A80036; stroke-width: 1.5;" width="10" x="1143" y="614"/><rect fill="#FEFECE" height="5" style="stroke: #A80036; stroke-width: 1.5;" width="10" x="1143" y="635.2969"/><text fill="#000000" font-family="sans-serif" font-size="14" lengthAdjust="spacingAndGlyphs" textLength="62" x="1158" y="631.9951">Postgres</text><!--entity Cloud Optimised GeoTIFFs--><rect fill="#FEFECE" filter="url(#f55vxpjtps976)" height="36.2969" style="stroke: #A80036; stroke-width: 1.5;" width="203" x="442.5" y="609"/><rect fill="#FEFECE" height="5" style="stroke: #A80036; stroke-width: 1.5;" width="10" x="437.5" y="614"/><rect fill="#FEFECE" height="5" style="stroke: #A80036; stroke-width: 1.5;" width="10" x="437.5" y="635.2969"/><text fill="#000000" font-family="sans-serif" font-size="14" lengthAdjust="spacingAndGlyphs" textLength="183" x="452.5" y="631.9951">Cloud Optimised GeoTIFFs</text><!--entity Managed Postgres--><rect fill="#FEFECE" filter="url(#f55vxpjtps976)" height="36.2969" style="stroke: #A80036; stroke-width: 1.5;" width="150" x="701" y="609"/><rect fill="#FEFECE" height="5" style="stroke: #A80036; stroke-width: 1.5;" width="10" x="696" y="614"/><rect fill="#FEFECE" height="5" style="stroke: #A80036; stroke-width: 1.5;" width="10" x="696" y="635.2969"/><text fill="#000000" font-family="sans-serif" font-size="14" lengthAdjust="spacingAndGlyphs" textLength="130" x="711" y="631.9951">Managed Postgres</text><!--link API to Core--><path d="M619,284.15 C619,296.58 619,320.71 619,338.63 " fill="none" id="API-Core" style="stroke: #A80036; stroke-width: 1.0;"/><polygon fill="#A80036" points="619,343.97,623,334.97,619,338.97,615,334.97,619,343.97" style="stroke: #A80036; stroke-width: 1.0;"/><!--link GridWorkflow to API--><path d="M626.18,206.2 C624.48,222.27 621.97,245.93 620.42,260.63 " fill="none" id="GridWorkflow-API" style="stroke: #A80036; stroke-width: 1.0;"/><polygon fill="#A80036" points="619.89,265.61,624.7949,257.0694,620.4045,260.6365,616.8373,256.2462,619.89,265.61" style="stroke: #A80036; stroke-width: 1.0;"/><!--link Core to Index--><path d="M635.87,380.24 C651.31,396.01 674.17,419.37 690.62,436.17 " fill="none" id="Core-Index" style="stroke: #A80036; stroke-width: 1.0;"/><polygon fill="#A80036" points="694.23,439.87,690.8059,430.6355,690.7375,436.292,685.081,436.2235,694.23,439.87" style="stroke: #A80036; stroke-width: 1.0;"/><!--link Core to Storage--><path d="M617.35,380.24 C615.88,395.61 613.72,418.2 612.12,434.89 " fill="none" id="Core-Storage" style="stroke: #A80036; stroke-width: 1.0;"/><polygon fill="#A80036" points="611.64,439.87,616.4938,431.3003,612.1248,434.8936,608.5315,430.5246,611.64,439.87" style="stroke: #A80036; stroke-width: 1.0;"/><!--link Ingester to GridWorkflow--><path d="M725.03,95.03 C704.73,114.28 671.68,145.6 649.89,166.26 " fill="none" id="Ingester-GridWorkflow" style="stroke: #A80036; stroke-width: 1.0;"/><polygon fill="#A80036" points="646.22,169.73,655.5089,166.4563,649.8543,166.296,650.0145,160.6415,646.22,169.73" style="stroke: #A80036; stroke-width: 1.0;"/><!--link Statistics to GridWorkflow--><path d="M628,95.03 C628,113.8 628,144.05 628,164.7 " fill="none" id="Statistics-GridWorkflow" style="stroke: #A80036; stroke-width: 1.0;"/><polygon fill="#A80036" points="628,169.73,632,160.73,628,164.73,624,160.73,628,169.73" style="stroke: #A80036; stroke-width: 1.0;"/><!--link Fractional Cover to GridWorkflow--><path d="M509.03,95.03 C534.03,114.36 574.78,145.86 601.5,166.51 " fill="none" id="Fractional Cover-GridWorkflow" style="stroke: #A80036; stroke-width: 1.0;"/><polygon fill="#A80036" points="605.66,169.73,600.9833,161.0623,601.7033,166.6732,596.0924,167.3931,605.66,169.73" style="stroke: #A80036; stroke-width: 1.0;"/><!--link datacube-wms to API--><path d="M338,206.07 C352.72,214.38 371.34,223.87 389,230 C467.75,257.32 567.89,269.1 604.64,272.71 " fill="none" id="datacube-wms-API" style="stroke: #A80036; stroke-width: 1.0;"/><polygon fill="#A80036" points="609.99,273.22,601.4065,268.3905,605.0122,272.7493,600.6534,276.355,609.99,273.22" style="stroke: #A80036; stroke-width: 1.0;"/><!--link Web Coverage Service to API--><path d="M163.02,206.01 C183.04,214.51 208.43,224.2 232,230 C374.55,265.06 553.63,272.3 604.78,273.69 " fill="none" id="Web Coverage Service-API" style="stroke: #A80036; stroke-width: 1.0;"/><polygon fill="#A80036" points="609.85,273.82,600.9558,269.59,604.8517,273.6915,600.7502,277.5873,609.85,273.82" style="stroke: #A80036; stroke-width: 1.0;"/><!--link CEOS Web UI to API--><path d="M493.77,206.2 C527.88,224.67 580.48,253.15 605.23,266.55 " fill="none" id="CEOS Web UI-API" style="stroke: #A80036; stroke-width: 1.0;"/><polygon fill="#A80036" points="609.8,269.02,603.7752,261.2289,605.3986,266.6478,599.9796,268.2712,609.8,269.02" style="stroke: #A80036; stroke-width: 1.0;"/><!--link Jupyter Notebook to API--><path d="M970.47,206.08 C954.17,214.5 933.5,224.09 914,230 C809.45,261.68 676.86,271.03 633.46,273.34 " fill="none" id="Jupyter Notebook-API" style="stroke: #A80036; stroke-width: 1.0;"/><polygon fill="#A80036" points="628.39,273.59,637.5836,277.1225,633.3834,273.3332,637.1727,269.133,628.39,273.59" style="stroke: #A80036; stroke-width: 1.0;"/><!--link QGIS Plugin to API--><path d="M810.93,206.13 C794.45,213.88 774.42,222.88 756,230 C711.84,247.08 657.98,262.99 632.99,270.1 " fill="none" id="QGIS Plugin-API" style="stroke: #A80036; stroke-width: 1.0;"/><polygon fill="#A80036" points="628.1,271.48,637.8477,272.888,632.9124,270.1234,635.6771,265.1881,628.1,271.48" style="stroke: #A80036; stroke-width: 1.0;"/><!--link THREDDS to NetCDF Files--><path d="M979.38,645.12 C985.5,669.06 996.62,712.56 1003.36,738.92 " fill="none" id="THREDDS-NetCDF Files" style="stroke: #A80036; stroke-width: 1.0;"/><polygon fill="#A80036" points="1004.64,743.95,1006.2772,734.2382,1003.3971,739.1069,998.5283,736.2268,1004.64,743.95" style="stroke: #A80036; stroke-width: 1.0;"/><!--link GSKY to NetCDF Files--><path d="M1074.35,645.12 C1060.74,669.26 1035.9,713.29 1021.08,739.57 " fill="none" id="GSKY-NetCDF Files" style="stroke: #A80036; stroke-width: 1.0;"/><polygon fill="#A80036" points="1018.61,743.95,1026.5087,738.0669,1021.0613,739.5921,1019.536,734.1448,1018.61,743.95" style="stroke: #A80036; stroke-width: 1.0;"/><!--link GSKY to MAS--><path d="M1089.02,645.12 C1096.04,669.06 1108.8,712.56 1116.53,738.92 " fill="none" id="GSKY-MAS" style="stroke: #A80036; stroke-width: 1.0;"/><polygon fill="#A80036" points="1118,743.95,1119.2932,734.1864,1116.5869,739.1539,1111.6194,736.4475,1118,743.95" style="stroke: #A80036; stroke-width: 1.0;"/><!--link Index to Postgres--><path d="M739.67,458.49 C825.87,457.51 1080.7,458.92 1144,508 C1173.73,531.05 1183.82,576.2 1187.24,603.48 " fill="none" id="Index-Postgres" style="stroke: #A80036; stroke-width: 1.0;"/><polygon fill="#A80036" points="1187.84,608.68,1190.7861,599.2821,1187.269,603.7127,1182.8384,600.1956,1187.84,608.68" style="stroke: #A80036; stroke-width: 1.0;"/><!--link Storage to NetCDF Files--><path d="M572.72,463.64 C524.51,470.49 444.62,485.04 427,508 C376.94,573.23 372.34,631.58 427,693 C461.37,731.62 808.06,751.78 949.45,758.45 " fill="none" id="Storage-NetCDF Files" style="stroke: #A80036; stroke-width: 1.0;"/><polygon fill="#A80036" points="954.8,758.7,945.9926,754.292,949.8052,758.471,945.6263,762.2836,954.8,758.7" style="stroke: #A80036; stroke-width: 1.0;"/><!--link Index to Managed Postgres--><path d="M717.71,476.24 C729.58,506.74 754.27,570.16 767.38,603.85 " fill="none" id="Index-Managed Postgres" style="stroke: #A80036; stroke-width: 1.0;"/><polygon fill="#A80036" points="769.23,608.6,769.6902,598.7619,767.415,603.9411,762.2359,601.6659,769.23,608.6" style="stroke: #A80036; stroke-width: 1.0;"/><!--link Storage to Cloud Optimised GeoTIFFs--><path d="M603.19,476.24 C591.13,506.74 566.07,570.16 552.75,603.85 " fill="none" id="Storage-Cloud Optimised GeoTIFFs" style="stroke: #A80036; stroke-width: 1.0;"/><polygon fill="#A80036" points="550.88,608.6,557.8998,601.6919,552.7122,603.9478,550.4563,598.7603,550.88,608.6" style="stroke: #A80036; stroke-width: 1.0;"/><!--
@startuml

package "VDI" {
[Jupyter Notebook]
[QGIS Plugin]
}

package "Web Services" {
[datacube-wms]
[Web Coverage Service]
[CEOS Web UI]
}

package "Raijin Apps" {
[Ingester]
[Statistics]
[Fractional Cover]
}

package "Datacube Core" {
[GridWorkflow]
[Index]
[Storage]

API - -> [Core]
[GridWorkflow] - -> API
[Core] - -> [Index]
[Core] - -> [Storage]
}

[Ingester] - -> [GridWorkflow]
[Statistics] - -> [GridWorkflow]
[Fractional Cover] - -> [GridWorkflow]

[datacube-wms] - -> API
[Web Coverage Service] - -> API
[CEOS Web UI] -> API

[Jupyter Notebook] - -> API
[QGIS Plugin] - -> API


package "NCI" {
[GSKY]
[THREDDS]

folder "/g/data/" {
  [NetCDF Files]
}

database "Database Server" {
  [Postgres]
}

[THREDDS] - -> [NetCDF Files]
[GSKY] - -> [NetCDF Files]
[GSKY] - -> [MAS]

[Index] -d-> [Postgres]
[Storage] -r-> [NetCDF Files]
}

package "Cloud" {

folder "bucket" {
  [Cloud Optimised GeoTIFFs]
}

database "Database Service" {
  [Managed Postgres]
}

[Index] -d-> [Managed Postgres]
[Storage] -r-> [Cloud Optimised GeoTIFFs]

}


@enduml

PlantUML version 1.2018.13(Tue Nov 27 04:11:51 AEDT 2018)
(GPL source distribution)
Java Runtime: OpenJDK Runtime Environment
JVM: OpenJDK 64-Bit Server VM
Java Version: 11.0.7+10-post-Ubuntu-3ubuntu1
Operating System: Linux
OS Version: 5.4.0-1012-azure
Default Encoding: UTF-8
Language: en
Country: AU
--></g></svg>
