<?xml version="1.0" encoding="UTF-8" standalone="no"?>
<!DOCTYPE svg PUBLIC "-//W3C//DTD SVG 1.1//EN"
 "http://www.w3.org/Graphics/SVG/1.1/DTD/svg11.dtd">
<!-- Generated by graphviz version 2.38.0 (20140413.2041)
 -->
<!-- Title: G Pages: 1 -->
<svg width="133pt" height="431pt"
 viewBox="0.00 0.00 133.00 431.00" xmlns="http://www.w3.org/2000/svg" xmlns:xlink="http://www.w3.org/1999/xlink">
<g id="graph0" class="graph" transform="scale(1 1) rotate(0) translate(4 427)">
<title>G</title>
<polygon fill="white" stroke="none" points="-4,4 -4,-427 129,-427 129,4 -4,4"/>
<!-- search_terms -->
<g id="node1" class="node"><title>search_terms</title>
<text text-anchor="middle" x="62.5" y="-401.9" font-family="Bookman; Helvetica" font-size="12.00">search_terms</text>
</g>
<!-- query -->
<g id="node5" class="node"><title>query</title>
<polygon fill="goldenrod" stroke="goldenrod" points="89.5,-351 35.5,-351 35.5,-330 89.5,-330 89.5,-351"/>
<text text-anchor="middle" x="62.5" y="-337.4" font-family="Bookman; Helvetica" font-size="12.00">query</text>
</g>
<!-- search_terms&#45;&gt;query -->
<g id="edge1" class="edge"><title>search_terms&#45;&gt;query</title>
<path fill="none" stroke="black" d="M62.5,-386.922C62.5,-379.07 62.5,-369.703 62.5,-361.521"/>
<polygon fill="black" stroke="black" points="66.0001,-361.352 62.5,-351.352 59.0001,-361.352 66.0001,-361.352"/>
</g>
<!-- VirtualDatasetBag -->
<g id="node2" class="node"><title>VirtualDatasetBag</title>
<text text-anchor="middle" x="62.5" y="-272.9" font-family="Bookman; Helvetica" font-size="12.00">VirtualDatasetBag</text>
</g>
<!-- group -->
<g id="node6" class="node"><title>group</title>
<polygon fill="goldenrod" stroke="goldenrod" points="89.5,-222 35.5,-222 35.5,-201 89.5,-201 89.5,-222"/>
<text text-anchor="middle" x="62.5" y="-208.4" font-family="Bookman; Helvetica" font-size="12.00">group</text>
</g>
<!-- VirtualDatasetBag&#45;&gt;group -->
<g id="edge3" class="edge"><title>VirtualDatasetBag&#45;&gt;group</title>
<path fill="none" stroke="black" d="M62.5,-257.922C62.5,-250.07 62.5,-240.703 62.5,-232.521"/>
<polygon fill="black" stroke="black" points="66.0001,-232.352 62.5,-222.352 59.0001,-232.352 66.0001,-232.352"/>
</g>
<!-- VirtualDatasetBox -->
<g id="node3" class="node"><title>VirtualDatasetBox</title>
<text text-anchor="middle" x="62.5" y="-143.9" font-family="Bookman; Helvetica" font-size="12.00">VirtualDatasetBox</text>
</g>
<!-- fetch -->
<g id="node7" class="node"><title>fetch</title>
<polygon fill="goldenrod" stroke="goldenrod" points="89.5,-93 35.5,-93 35.5,-72 89.5,-72 89.5,-93"/>
<text text-anchor="middle" x="62.5" y="-79.4" font-family="Bookman; Helvetica" font-size="12.00">fetch</text>
</g>
<!-- VirtualDatasetBox&#45;&gt;fetch -->
<g id="edge5" class="edge"><title>VirtualDatasetBox&#45;&gt;fetch</title>
<path fill="none" stroke="black" d="M62.5,-128.922C62.5,-121.07 62.5,-111.703 62.5,-103.521"/>
<polygon fill="black" stroke="black" points="66.0001,-103.352 62.5,-93.3516 59.0001,-103.352 66.0001,-103.352"/>
</g>
<!-- data -->
<g id="node4" class="node"><title>data</title>
<text text-anchor="middle" x="62.5" y="-14.9" font-family="Bookman; Helvetica" font-size="12.00">xarray.Dataset</text>
</g>
<!-- query&#45;&gt;VirtualDatasetBag -->
<g id="edge2" class="edge"><title>query&#45;&gt;VirtualDatasetBag</title>
<path fill="none" stroke="black" d="M62.5,-329.734C62.5,-322.924 62.5,-313.474 62.5,-304.453"/>
<polygon fill="black" stroke="black" points="66.0001,-304.244 62.5,-294.244 59.0001,-304.244 66.0001,-304.244"/>
</g>
<!-- group&#45;&gt;VirtualDatasetBox -->
<g id="edge4" class="edge"><title>group&#45;&gt;VirtualDatasetBox</title>
<path fill="none" stroke="black" d="M62.5,-200.734C62.5,-193.924 62.5,-184.474 62.5,-175.453"/>
<polygon fill="black" stroke="black" points="66.0001,-175.244 62.5,-165.244 59.0001,-175.244 66.0001,-175.244"/>
</g>
<!-- fetch&#45;&gt;data -->
<g id="edge6" class="edge"><title>fetch&#45;&gt;data</title>
<path fill="none" stroke="black" d="M62.5,-71.7344C62.5,-64.9237 62.5,-55.4742 62.5,-46.4532"/>
<polygon fill="black" stroke="black" points="66.0001,-46.2438 62.5,-36.2438 59.0001,-46.2439 66.0001,-46.2438"/>
</g>
</g>
</svg>
