<?xml version="1.0" encoding="UTF-8" standalone="no"?>
<!DOCTYPE svg PUBLIC "-//W3C//DTD SVG 1.1//EN"
 "http://www.w3.org/Graphics/SVG/1.1/DTD/svg11.dtd">
<!-- Generated by graphviz version 2.26.0 (20091210.2329)
 -->
<!-- Title: G Pages: 1 -->
<svg width="112pt" height="440pt"
 viewBox="0.00 0.00 112.00 440.00" xmlns="http://www.w3.org/2000/svg" xmlns:xlink="http://www.w3.org/1999/xlink">
<g id="graph1" class="graph" transform="scale(1 1) rotate(0) translate(4 436)">
<title>G</title>
<polygon fill="white" stroke="white" points="-4,5 -4,-436 109,-436 109,5 -4,5"/>
<!-- search_terms -->
<g id="node1" class="node"><title>search_terms</title>
<text text-anchor="middle" x="52" y="-410.7" font-family="Bookman; Helvetica" font-size="12.00">search_terms</text>
</g>
<!-- query -->
<g id="node5" class="node"><title>query</title>
<polygon fill="goldenrod" stroke="goldenrod" points="79,-359.5 25,-359.5 25,-336.5 79,-336.5 79,-359.5"/>
<text text-anchor="middle" x="52" y="-344.7" font-family="Bookman; Helvetica" font-size="12.00">query</text>
</g>
<!-- search_terms&#45;&gt;query -->
<g id="edge2" class="edge"><title>search_terms&#45;&gt;query</title>
<path fill="none" stroke="black" d="M52,-395.965C52,-387.898 52,-378.316 52,-369.846"/>
<polygon fill="black" stroke="black" points="55.5001,-369.572 52,-359.572 48.5001,-369.572 55.5001,-369.572"/>
</g>
<!-- QueryResult -->
<g id="node2" class="node"><title>QueryResult</title>
<text text-anchor="middle" x="52" y="-278.7" font-family="Bookman; Helvetica" font-size="12.00">QueryResult</text>
</g>
<!-- group -->
<g id="node6" class="node"><title>group</title>
<polygon fill="goldenrod" stroke="goldenrod" points="79,-227.5 25,-227.5 25,-204.5 79,-204.5 79,-227.5"/>
<text text-anchor="middle" x="52" y="-212.7" font-family="Bookman; Helvetica" font-size="12.00">group</text>
</g>
<!-- QueryResult&#45;&gt;group -->
<g id="edge4" class="edge"><title>QueryResult&#45;&gt;group</title>
<path fill="none" stroke="black" d="M52,-263.965C52,-255.898 52,-246.316 52,-237.846"/>
<polygon fill="black" stroke="black" points="55.5001,-237.572 52,-227.572 48.5001,-237.572 55.5001,-237.572"/>
</g>
<!-- DatasetPile -->
<g id="node3" class="node"><title>DatasetPile</title>
<text text-anchor="middle" x="52" y="-146.7" font-family="Bookman; Helvetica" font-size="12.00">DatasetPile</text>
</g>
<!-- fetch -->
<g id="node7" class="node"><title>fetch</title>
<polygon fill="goldenrod" stroke="goldenrod" points="79,-95.5 25,-95.5 25,-72.5 79,-72.5 79,-95.5"/>
<text text-anchor="middle" x="52" y="-80.7" font-family="Bookman; Helvetica" font-size="12.00">fetch</text>
</g>
<!-- DatasetPile&#45;&gt;fetch -->
<g id="edge6" class="edge"><title>DatasetPile&#45;&gt;fetch</title>
<path fill="none" stroke="black" d="M52,-131.965C52,-123.898 52,-114.316 52,-105.846"/>
<polygon fill="black" stroke="black" points="55.5001,-105.572 52,-95.5718 48.5001,-105.572 55.5001,-105.572"/>
</g>
<!-- data -->
<g id="node4" class="node"><title>data</title>
<text text-anchor="middle" x="52" y="-14.7" font-family="Bookman; Helvetica" font-size="12.00">xarray.Dataset</text>
</g>
<!-- query&#45;&gt;QueryResult -->
<g id="edge3" class="edge"><title>query&#45;&gt;QueryResult</title>
<path fill="none" stroke="black" d="M52,-336.201C52,-329.005 52,-319.478 52,-310.42"/>
<polygon fill="black" stroke="black" points="55.5001,-310.17 52,-300.17 48.5001,-310.17 55.5001,-310.17"/>
</g>
<!-- group&#45;&gt;DatasetPile -->
<g id="edge5" class="edge"><title>group&#45;&gt;DatasetPile</title>
<path fill="none" stroke="black" d="M52,-204.201C52,-197.005 52,-187.478 52,-178.42"/>
<polygon fill="black" stroke="black" points="55.5001,-178.17 52,-168.17 48.5001,-178.17 55.5001,-178.17"/>
</g>
<!-- fetch&#45;&gt;data -->
<g id="edge7" class="edge"><title>fetch&#45;&gt;data</title>
<path fill="none" stroke="black" d="M52,-72.2005C52,-65.0051 52,-55.4776 52,-46.4196"/>
<polygon fill="black" stroke="black" points="55.5001,-46.1698 52,-36.1699 48.5001,-46.1699 55.5001,-46.1698"/>
</g>
</g>
</svg>
