<?xml version="1.0" encoding="UTF-8" standalone="no"?>
<!DOCTYPE svg PUBLIC "-//W3C//DTD SVG 1.1//EN" "http://www.w3.org/Graphics/SVG/1.1/DTD/svg11.dtd">
<svg width="100%" height="100%" viewBox="0 0 3130 761" version="1.1" xmlns="http://www.w3.org/2000/svg" xmlns:xlink="http://www.w3.org/1999/xlink" xml:space="preserve" xmlns:serif="http://www.serif.com/" style="fill-rule:evenodd;clip-rule:evenodd;stroke-linejoin:round;stroke-miterlimit:1.41421;">
    <g transform="matrix(1,0,0,1,-227.565,-1003.78)">
        <g id="Layer-1" serif:id="Layer 1" transform="matrix(4.16667,0,0,4.16667,0,0)">
            <g transform="matrix(1,0,0,1,182.824,405.586)">
                <path d="M0,-98.634L0,-42.911L-46.648,-14.891L-46.648,17.839L30.895,-26.932L30.895,-116.473L0,-98.634Z" style="fill:rgb(33,84,161);fill-rule:nonzero;"/>
            </g>
            <g transform="matrix(1,0,0,1,85.5107,405.586)">
                <path d="M0,-98.634L0,-42.911L46.647,-14.891L46.647,17.839L-30.895,-26.932L-30.895,-116.473L0,-98.634Z" style="fill:rgb(27,55,91);fill-rule:nonzero;"/>
            </g>
            <g transform="matrix(1,0,0,1,178.967,273.365)">
                <path d="M0,84.871L-43.001,59.474L-43.121,7.767L-1.862,32.351L1.973,30.204L32.769,12.311L-44.774,-32.459L-122.316,12.311L-87.285,32.247L-46.928,8.006L-46.809,59.487L-89.308,85.114L-89.473,35.786L-93.456,33.587L-93.456,89.309L-46.809,117.33L-46.809,112.747L-87.362,88.389L-44.892,62.778L-1.735,88.267L-42.791,112.751L-42.791,117.33L3.808,89.381L3.857,33.587L0,35.852L0,84.871Z" style="fill:rgb(146,176,220);fill-rule:nonzero;"/>
            </g>
            <g transform="matrix(1,0,0,1,265.688,313.254)">
                <path d="M0,31.698C8.683,31.698 15.849,24.6 15.849,15.918C15.849,7.236 8.683,0 0,0C-8.683,0 -15.78,7.236 -15.78,15.918C-15.78,24.6 -8.683,31.698 0,31.698M0,-8.958C13.782,-8.958 24.807,2.136 24.807,15.918C24.807,29.7 13.782,40.656 0,40.656C-13.782,40.656 -24.738,29.7 -24.738,15.918C-24.738,2.136 -13.782,-8.958 0,-8.958" style="fill:rgb(33,84,161);fill-rule:nonzero;"/>
            </g>
            <g transform="matrix(1,0,0,1,316.474,330.896)">
                <path d="M0,-3.584C3.859,-3.584 7.098,-6.685 7.098,-10.75C7.098,-14.54 3.859,-17.435 0,-17.435L-7.993,-17.435L-7.993,-3.584L0,-3.584ZM-16.952,-24.601C-16.952,-25.29 -16.4,-25.91 -15.642,-25.91L0.551,-25.91C9.027,-25.91 15.987,-19.02 15.987,-10.682C15.987,-2.137 9.027,4.823 0.62,4.823L-7.993,4.823L-7.993,21.017C-7.993,21.706 -8.613,22.326 -9.303,22.326L-15.642,22.326C-16.4,22.326 -16.952,21.706 -16.952,21.017L-16.952,-24.601Z" style="fill:rgb(33,84,161);fill-rule:nonzero;"/>
            </g>
            <g transform="matrix(1,0,0,1,340.316,351.912)">
                <path d="M0,-45.617C0,-46.306 0.551,-46.927 1.31,-46.927L29.355,-46.927C30.113,-46.927 30.665,-46.306 30.665,-45.617L30.665,-39.967C30.665,-39.278 30.113,-38.658 29.355,-38.658L8.958,-38.658L8.958,-27.356L25.979,-27.356C26.668,-27.356 27.288,-26.736 27.288,-26.048L27.288,-20.328C27.288,-19.57 26.668,-19.018 25.979,-19.018L8.958,-19.018L8.958,-6.96L29.355,-6.96C30.113,-6.96 30.665,-6.34 30.665,-5.65L30.665,0C30.665,0.69 30.113,1.31 29.355,1.31L1.31,1.31C0.551,1.31 0,0.69 0,0L0,-45.617Z" style="fill:rgb(33,84,161);fill-rule:nonzero;"/>
            </g>
            <g transform="matrix(1,0,0,1,380.835,352.67)">
                <path d="M0,-47.134C0,-47.822 0.621,-48.374 1.31,-48.374L3.032,-48.374L31.698,-17.916L31.767,-17.916L31.767,-46.375C31.767,-47.065 32.318,-47.685 33.076,-47.685L39.416,-47.685C40.105,-47.685 40.725,-47.065 40.725,-46.375L40.725,0C40.725,0.689 40.105,1.24 39.416,1.24L37.762,1.24L8.958,-30.389L8.889,-30.389L8.889,-0.758C8.889,-0.069 8.338,0.552 7.58,0.552L1.31,0.552C0.621,0.552 0,-0.069 0,-0.758L0,-47.134Z" style="fill:rgb(33,84,161);fill-rule:nonzero;"/>
            </g>
            <g transform="matrix(1,0,0,1,466.076,313.393)">
                <path d="M0,31.422C8.958,31.422 15.504,24.669 15.504,15.642C15.504,6.684 8.958,-0.069 0,-0.069L-7.855,-0.069L-7.855,31.422L0,31.422ZM-16.745,-7.098C-16.745,-7.787 -16.194,-8.407 -15.505,-8.407L0.827,-8.407C14.126,-8.407 25.014,2.411 25.014,15.642C25.014,29.01 14.126,39.829 0.827,39.829L-15.505,39.829C-16.194,39.829 -16.745,39.209 -16.745,38.52L-16.745,-7.098Z" style="fill:rgb(33,84,161);fill-rule:nonzero;"/>
            </g>
            <g transform="matrix(1,0,0,1,523.271,320.766)">
                <path d="M0,15.986L-6.891,0.827L-7.098,0.827L-13.851,15.986L0,15.986ZM-29.769,30.664L-8.338,-15.711C-8.131,-16.125 -7.787,-16.47 -7.166,-16.47L-6.478,-16.47C-5.788,-16.47 -5.513,-16.125 -5.306,-15.711L15.918,30.664C16.331,31.559 15.78,32.456 14.746,32.456L8.751,32.456C7.718,32.456 7.235,32.042 6.753,31.077L3.377,23.635L-17.228,23.635L-20.604,31.077C-20.879,31.766 -21.5,32.456 -22.602,32.456L-28.597,32.456C-29.631,32.456 -30.182,31.559 -29.769,30.664" style="fill:rgb(33,84,161);fill-rule:nonzero;"/>
            </g>
            <g transform="matrix(1,0,0,1,549.388,344.953)">
                <path d="M0,-31.699L-10.543,-31.699C-11.301,-31.699 -11.853,-32.319 -11.853,-33.008L-11.853,-38.658C-11.853,-39.347 -11.301,-39.968 -10.543,-39.968L19.57,-39.968C20.328,-39.968 20.879,-39.347 20.879,-38.658L20.879,-33.008C20.879,-32.319 20.328,-31.699 19.57,-31.699L9.027,-31.699L9.027,6.959C9.027,7.649 8.407,8.269 7.718,8.269L1.31,8.269C0.62,8.269 0,7.649 0,6.959L0,-31.699Z" style="fill:rgb(33,84,161);fill-rule:nonzero;"/>
            </g>
            <g transform="matrix(1,0,0,1,598.313,320.766)">
                <path d="M0,15.986L-6.891,0.827L-7.098,0.827L-13.851,15.986L0,15.986ZM-29.769,30.664L-8.338,-15.711C-8.131,-16.125 -7.787,-16.47 -7.166,-16.47L-6.478,-16.47C-5.788,-16.47 -5.513,-16.125 -5.306,-15.711L15.918,30.664C16.331,31.559 15.78,32.456 14.746,32.456L8.751,32.456C7.718,32.456 7.235,32.042 6.753,31.077L3.377,23.635L-17.228,23.635L-20.604,31.077C-20.879,31.766 -21.5,32.456 -22.602,32.456L-28.597,32.456C-29.631,32.456 -30.182,31.559 -29.769,30.664" style="fill:rgb(33,84,161);fill-rule:nonzero;"/>
            </g>
            <g transform="matrix(1,0,0,1,657.093,353.91)">
                <path d="M0,-49.614C6.959,-49.614 11.989,-47.409 16.676,-43.205C17.296,-42.654 17.296,-41.827 16.744,-41.276L12.541,-36.934C12.059,-36.384 11.369,-36.384 10.818,-36.934C7.924,-39.484 4.065,-41 0.206,-41C-8.614,-41 -15.16,-33.627 -15.16,-24.944C-15.16,-16.331 -8.545,-9.026 0.275,-9.026C4.41,-9.026 7.924,-10.611 10.818,-12.954C11.369,-13.436 12.128,-13.368 12.541,-12.954L16.813,-8.544C17.364,-8.061 17.227,-7.166 16.744,-6.683C12.059,-2.135 6.133,0 0,0C-13.782,0 -24.877,-10.956 -24.877,-24.738C-24.877,-38.519 -13.782,-49.614 0,-49.614" style="fill:rgb(33,84,161);fill-rule:nonzero;"/>
            </g>
            <g transform="matrix(1,0,0,1,682.176,352.6)">
                <path d="M0,-46.305C0,-46.994 0.62,-47.615 1.309,-47.615L7.855,-47.615C8.613,-47.615 9.164,-46.994 9.164,-46.305L9.164,-18.121C9.164,-12.264 13.161,-7.648 19.156,-7.648C25.151,-7.648 29.217,-12.264 29.217,-18.053L29.217,-46.305C29.217,-46.994 29.769,-47.615 30.526,-47.615L37.072,-47.615C37.762,-47.615 38.382,-46.994 38.382,-46.305L38.382,-17.639C38.382,-7.165 30.044,1.31 19.156,1.31C8.338,1.31 0,-7.165 0,-17.639L0,-46.305Z" style="fill:rgb(33,84,161);fill-rule:nonzero;"/>
            </g>
            <g transform="matrix(1,0,0,1,749.638,313.118)">
                <path d="M0,31.972C3.445,31.972 6.201,29.284 6.201,25.701C6.201,22.256 2.756,19.706 -0.827,19.706L-8.338,19.706L-8.338,31.972L0,31.972ZM-0.965,12.126C2.55,12.126 4.961,9.37 4.961,5.925C4.961,2.48 2.55,0.068 -0.965,0.068L-8.338,0.068L-8.338,12.126L-0.965,12.126ZM-17.228,-6.823C-17.228,-7.512 -16.676,-8.132 -15.918,-8.132L-0.138,-8.132C8.063,-8.132 14.401,-2.62 14.401,4.616C14.401,9.921 10.061,14.056 6.822,15.572C10.474,16.743 15.78,20.464 15.78,26.804C15.78,34.522 9.165,40.104 0.758,40.104L-15.918,40.104C-16.676,40.104 -17.228,39.484 -17.228,38.794L-17.228,-6.823Z" style="fill:rgb(33,84,161);fill-rule:nonzero;"/>
            </g>
            <g transform="matrix(1,0,0,1,774.927,351.912)">
                <path d="M0,-45.617C0,-46.306 0.552,-46.927 1.31,-46.927L29.355,-46.927C30.113,-46.927 30.664,-46.306 30.664,-45.617L30.664,-39.967C30.664,-39.278 30.113,-38.658 29.355,-38.658L8.958,-38.658L8.958,-27.356L25.979,-27.356C26.668,-27.356 27.288,-26.736 27.288,-26.048L27.288,-20.328C27.288,-19.57 26.668,-19.018 25.979,-19.018L8.958,-19.018L8.958,-6.96L29.355,-6.96C30.113,-6.96 30.664,-6.34 30.664,-5.65L30.664,0C30.664,0.69 30.113,1.31 29.355,1.31L1.31,1.31C0.552,1.31 0,0.69 0,0L0,-45.617Z" style="fill:rgb(33,84,161);fill-rule:nonzero;"/>
            </g>
        </g>
    </g>
</svg>
