<?xml version="1.0" encoding="UTF-8" standalone="no"?>
<svg
   xmlns:dc="http://purl.org/dc/elements/1.1/"
   xmlns:cc="http://creativecommons.org/ns#"
   xmlns:rdf="http://www.w3.org/1999/02/22-rdf-syntax-ns#"
   xmlns:svg="http://www.w3.org/2000/svg"
   xmlns="http://www.w3.org/2000/svg"
   id="svg8"
   version="1.1"
   viewBox="0 0 210 297"
   height="297mm"
   width="210mm">
  <defs
     id="defs2">
    <clipPath
       clipPathUnits="userSpaceOnUse"
       id="clipPath57">
      <path
         d="M 0,595.28 H 841.89 V 0 H 0 Z"
         id="path55" />
    </clipPath>
  </defs>
  <metadata
     id="metadata5">
    <rdf:RDF>
      <cc:Work
         rdf:about="">
        <dc:format>image/svg+xml</dc:format>
        <dc:type
           rdf:resource="http://purl.org/dc/dcmitype/StillImage" />
        <dc:title></dc:title>
      </cc:Work>
    </rdf:RDF>
  </metadata>
  <g
     id="layer1">
    <g
       transform="matrix(0.35277777,0,0,-0.35277777,60.079604,85.70395)"
       id="g39">
      <path
         id="path41"
         style="fill:#2254a0;fill-opacity:1;fill-rule:nonzero;stroke:none"
         d="m 0,0 v -121.994 l -102.125,-61.344 v -71.655 l 169.763,98.016 V 39.055 Z" />
    </g>
    <g
       transform="matrix(0.35277777,0,0,-0.35277777,-15.078747,85.70395)"
       id="g43">
      <path
         id="path45"
         style="fill:#1c375b;fill-opacity:1;fill-rule:nonzero;stroke:none"
         d="m 0,0 v -121.994 l 102.125,-61.344 v -71.655 l -169.763,98.016 V 39.055 Z" />
    </g>
    <g
       transform="matrix(0.35277777,0,0,-0.35277777,57.100819,125.31239)"
       id="g47">
      <path
         id="path49"
         style="fill:#92b0dc;fill-opacity:1;fill-rule:nonzero;stroke:none"
         d="m 0,0 -94.142,55.603 -0.262,113.199 90.327,-53.821 8.395,4.701 67.422,39.172 -169.764,98.016 -169.763,-98.016 76.695,-43.646 88.353,53.071 0.26,-112.707 -93.043,-56.105 -0.361,107.993 -8.721,4.816 V -9.718 l 102.125,-61.345 v 10.034 L -191.262,-7.7 -98.282,48.368 -3.799,-7.437 -93.681,-61.038 V -71.063 L 8.336,-9.873 8.444,112.276 0,107.315 Z" />
    </g>
    <g
       transform="matrix(0.35277777,0,0,-0.35277777,-61.995792,205.57579)"
       id="g51">
      <g
         clip-path="url(#clipPath57)"
         id="g53">
        <g
           transform="translate(502.5732,387.4006)"
           id="g59">
          <path
             id="path61"
             style="fill:#1c375b;fill-opacity:1;fill-rule:nonzero;stroke:none"
             d="M 0,0 C 12.948,0 23.637,10.585 23.637,23.534 23.637,36.483 12.948,47.273 0,47.273 -12.949,47.273 -23.534,36.483 -23.534,23.534 -23.534,10.585 -12.949,0 0,0 m 0,60.633 c 20.554,0 36.996,-16.546 36.996,-37.099 C 36.996,2.98 20.554,-13.36 0,-13.36 c -20.554,0 -36.894,16.34 -36.894,36.894 0,20.553 16.34,37.099 36.894,37.099" />
        </g>
        <g
           transform="translate(578.3174,413.7092)"
           id="g63">
          <path
             id="path65"
             style="fill:#1c375b;fill-opacity:1;fill-rule:nonzero;stroke:none"
             d="m 0,0 c 5.755,0 10.585,4.625 10.585,10.688 0,5.652 -4.83,9.968 -10.585,9.968 H -11.921 V 0 Z m -25.281,31.344 c 0,1.028 0.822,1.953 1.953,1.953 h 24.15 c 12.641,0 23.02,-10.277 23.02,-22.712 0,-12.743 -10.379,-23.123 -22.917,-23.123 h -12.846 v -24.15 c 0,-1.028 -0.925,-1.953 -1.953,-1.953 h -9.454 c -1.131,0 -1.953,0.925 -1.953,1.953 z" />
        </g>
        <g
           transform="translate(613.8779,445.0534)"
           id="g67">
          <path
             id="path69"
             style="fill:#1c375b;fill-opacity:1;fill-rule:nonzero;stroke:none"
             d="m 0,0 c 0,1.028 0.822,1.953 1.953,1.953 h 41.826 c 1.131,0 1.953,-0.925 1.953,-1.953 v -8.427 c 0,-1.028 -0.822,-1.952 -1.953,-1.952 H 13.36 v -16.854 h 25.384 c 1.027,0 1.952,-0.925 1.952,-1.953 v -8.53 c 0,-1.13 -0.925,-1.952 -1.952,-1.952 H 13.36 v -17.985 h 30.419 c 1.131,0 1.953,-0.925 1.953,-1.952 v -8.427 c 0,-1.028 -0.822,-1.953 -1.953,-1.953 H 1.953 C 0.822,-69.985 0,-69.06 0,-68.032 Z" />
        </g>
        <g
           transform="translate(674.3096,446.1838)"
           id="g71">
          <path
             id="path73"
             style="fill:#1c375b;fill-opacity:1;fill-rule:nonzero;stroke:none"
             d="m 0,0 c 0,1.028 0.925,1.85 1.953,1.85 h 2.569 l 42.751,-45.423 h 0.103 V -1.13 c 0,1.027 0.822,1.952 1.953,1.952 h 9.454 c 1.029,0 1.953,-0.925 1.953,-1.952 v -69.163 c 0,-1.028 -0.924,-1.85 -1.953,-1.85 h -2.466 l -42.957,47.17 h -0.102 v -44.19 c 0,-1.027 -0.822,-1.952 -1.953,-1.952 H 1.953 C 0.925,-71.115 0,-70.19 0,-69.163 Z" />
        </g>
        <g
           transform="translate(495.79,264.2771)"
           id="g75">
          <path
             id="path77"
             style="fill:#1c375b;fill-opacity:1;fill-rule:nonzero;stroke:none"
             d="M 0,0 C 13.36,0 23.123,10.071 23.123,23.533 23.123,36.893 13.36,46.964 0,46.964 H -11.715 V 0 Z m -24.973,57.447 c 0,1.028 0.823,1.952 1.851,1.952 H 1.233 c 19.834,0 36.072,-16.134 36.072,-35.866 0,-19.936 -16.238,-36.071 -36.072,-36.071 h -24.355 c -1.028,0 -1.851,0.925 -1.851,1.952 z" />
        </g>
        <g
           transform="translate(581.0918,276.3005)"
           id="g79">
          <path
             id="path81"
             style="fill:#1c375b;fill-opacity:1;fill-rule:nonzero;stroke:none"
             d="m 0,0 -10.276,22.609 h -0.309 L -20.656,0 Z m -44.396,-21.89 31.961,69.163 c 0.309,0.617 0.823,1.131 1.747,1.131 h 1.028 c 1.028,0 1.439,-0.514 1.747,-1.131 L 23.739,-21.89 c 0.617,-1.336 -0.205,-2.672 -1.747,-2.672 h -8.94 c -1.542,0 -2.261,0.617 -2.981,2.056 l -5.035,11.099 h -30.727 l -5.037,-11.099 c -0.411,-1.028 -1.335,-2.056 -2.98,-2.056 h -8.94 c -1.542,0 -2.364,1.336 -1.748,2.672" />
        </g>
        <g
           transform="translate(620.0459,311.3445)"
           id="g83">
          <path
             id="path85"
             style="fill:#1c375b;fill-opacity:1;fill-rule:nonzero;stroke:none"
             d="m 0,0 h -15.724 c -1.13,0 -1.952,0.925 -1.952,1.953 v 8.426 c 0,1.028 0.822,1.953 1.952,1.953 h 44.911 c 1.13,0 1.952,-0.925 1.952,-1.953 V 1.953 C 31.139,0.925 30.317,0 29.187,0 H 13.463 v -57.653 c 0,-1.028 -0.925,-1.952 -1.952,-1.952 H 1.953 C 0.925,-59.605 0,-58.681 0,-57.653 Z" />
        </g>
        <g
           transform="translate(693.0137,276.3005)"
           id="g87">
          <path
             id="path89"
             style="fill:#1c375b;fill-opacity:1;fill-rule:nonzero;stroke:none"
             d="m 0,0 -10.276,22.609 h -0.309 L -20.656,0 Z m -44.396,-21.89 31.961,69.163 c 0.309,0.617 0.823,1.131 1.747,1.131 h 1.028 c 1.028,0 1.439,-0.514 1.747,-1.131 L 23.739,-21.89 c 0.617,-1.336 -0.205,-2.672 -1.747,-2.672 h -8.94 c -1.542,0 -2.261,0.617 -2.981,2.056 l -5.035,11.099 h -30.727 l -5.037,-11.099 c -0.411,-1.028 -1.335,-2.056 -2.98,-2.056 h -8.94 c -1.542,0 -2.364,1.336 -1.748,2.672" />
        </g>
        <g
           transform="translate(502.6758,201.3747)"
           id="g91">
          <path
             id="path93"
             style="fill:#1c375b;fill-opacity:1;fill-rule:nonzero;stroke:none"
             d="m 0,0 c 10.38,0 17.882,-3.288 24.87,-9.557 0.925,-0.822 0.925,-2.055 0.103,-2.878 l -6.269,-6.474 c -0.72,-0.822 -1.747,-0.822 -2.569,0 -4.317,3.803 -10.072,6.063 -15.826,6.063 -13.155,0 -22.918,-10.996 -22.918,-23.944 0,-12.847 9.866,-23.74 23.02,-23.74 6.166,0 11.407,2.364 15.724,5.858 0.822,0.719 1.952,0.616 2.569,0 l 6.371,-6.577 c 0.822,-0.72 0.617,-2.056 -0.102,-2.775 C 17.984,-70.807 9.146,-73.992 0,-73.992 c -20.554,0 -37.1,16.34 -37.1,36.893 C -37.1,-16.545 -20.554,0 0,0" />
        </g>
        <g
           transform="translate(540.0869,198.3952)"
           id="g95">
          <path
             id="path97"
             style="fill:#1c375b;fill-opacity:1;fill-rule:nonzero;stroke:none"
             d="m 0,0 c 0,1.027 0.925,1.952 1.952,1.952 h 9.764 c 1.13,0 1.952,-0.925 1.952,-1.952 v -42.032 c 0,-8.736 5.961,-15.621 14.901,-15.621 8.942,0 15.004,6.885 15.004,15.518 V 0 c 0,1.027 0.823,1.952 1.953,1.952 h 9.763 c 1.027,0 1.953,-0.925 1.953,-1.952 v -42.752 c 0,-15.621 -12.435,-28.261 -28.673,-28.261 C 12.435,-71.013 0,-58.373 0,-42.752 Z" />
        </g>
        <g
           transform="translate(640.7012,140.5368)"
           id="g99">
          <path
             id="path101"
             style="fill:#1c375b;fill-opacity:1;fill-rule:nonzero;stroke:none"
             d="m 0,0 c 5.139,0 9.249,4.008 9.249,9.352 0,5.138 -5.139,8.94 -10.482,8.94 H -12.435 V 0 Z m -1.438,29.597 c 5.241,0 8.837,4.111 8.837,9.249 0,5.138 -3.596,8.735 -8.837,8.735 H -12.435 V 29.597 Z m -24.254,28.261 c 0,1.028 0.822,1.953 1.953,1.953 h 23.533 c 12.229,0 21.685,-8.222 21.685,-19.012 0,-7.913 -6.475,-14.079 -11.305,-16.341 5.447,-1.747 13.36,-7.296 13.36,-16.751 0,-11.51 -9.866,-19.834 -22.403,-19.834 h -24.87 c -1.131,0 -1.953,0.925 -1.953,1.952 z" />
        </g>
        <g
           transform="translate(678.4199,198.3952)"
           id="g103">
          <path
             id="path105"
             style="fill:#1c375b;fill-opacity:1;fill-rule:nonzero;stroke:none"
             d="m 0,0 c 0,1.027 0.822,1.952 1.953,1.952 h 41.826 c 1.131,0 1.953,-0.925 1.953,-1.952 v -8.428 c 0,-1.027 -0.822,-1.952 -1.953,-1.952 H 13.36 v -16.854 h 25.384 c 1.027,0 1.952,-0.925 1.952,-1.953 v -8.529 c 0,-1.131 -0.925,-1.953 -1.952,-1.953 H 13.36 v -17.984 h 30.419 c 1.131,0 1.953,-0.925 1.953,-1.952 v -8.428 c 0,-1.028 -0.822,-1.952 -1.953,-1.952 H 1.953 C 0.822,-69.985 0,-69.061 0,-68.033 Z" />
        </g>
      </g>
    </g>
  </g>
</svg>
