<?xml version="1.0" encoding="UTF-8" standalone="no"?>
<!DOCTYPE svg PUBLIC "-//W3C//DTD SVG 1.1//EN" "http://www.w3.org/Graphics/SVG/1.1/DTD/svg11.dtd">
<svg width="1440px" height="874px" viewBox="0 0 2791 1694" version="1.1" xmlns="http://www.w3.org/2000/svg" xmlns:xlink="http://www.w3.org/1999/xlink" xml:space="preserve" xmlns:serif="http://www.serif.com/" style="fill-rule:evenodd;clip-rule:evenodd;stroke-linejoin:round;stroke-miterlimit:1.41421;">
    <g transform="matrix(1,0,0,1,-345.769,-380.863)">
        <g id="Layer-1" serif:id="Layer 1" transform="matrix(4.16667,0,0,4.16667,0,0)">
            <g transform="matrix(1,0,0,1,501.888,374.172)">
                <path d="M0,-169.36L0,-73.68L-80.097,-25.568L-80.097,30.631L53.049,-46.243L53.049,-199.991L0,-169.36Z" style="fill:rgb(33,84,161);fill-rule:nonzero;"/>
            </g>
            <g transform="matrix(1,0,0,1,334.794,374.172)">
                <path d="M0,-169.36L0,-73.68L80.097,-25.568L80.097,30.631L-53.049,-46.243L-53.049,-199.991L0,-169.36Z" style="fill:rgb(27,55,91);fill-rule:nonzero;"/>
            </g>
            <g transform="matrix(1,0,0,1,495.265,147.141)">
                <path d="M0,145.729L-73.835,102.12L-74.041,13.337L-3.197,55.549L3.387,51.862L56.266,21.14L-76.88,-55.734L-210.026,21.14L-149.874,55.371L-80.579,13.748L-80.374,102.144L-153.348,146.147L-153.631,61.448L-160.471,57.671L-160.471,153.351L-80.374,201.463L-80.374,193.594L-150.007,151.768L-77.082,107.793L-2.979,151.562L-73.474,193.601L-73.474,201.463L6.538,153.472L6.623,57.671L0,61.562L0,145.729Z" style="fill:rgb(146,176,220);fill-rule:nonzero;"/>
            </g>
            <g transform="matrix(1,0,0,1,112.332,449.642)">
                <path d="M0,37.603C10.3,37.603 18.803,29.183 18.803,18.882C18.803,8.582 10.3,-0.001 0,-0.001C-10.3,-0.001 -18.721,8.582 -18.721,18.882C-18.721,29.183 -10.3,37.603 0,37.603M0,-10.628C16.351,-10.628 29.43,2.533 29.43,18.882C29.43,35.233 16.351,48.231 0,48.231C-16.35,48.231 -29.348,35.233 -29.348,18.882C-29.348,2.533 -16.35,-10.628 0,-10.628" style="fill:rgb(33,84,161);fill-rule:nonzero;"/>
            </g>
            <g transform="matrix(1,0,0,1,172.576,470.568)">
                <path d="M0,-4.251C4.579,-4.251 8.421,-7.93 8.421,-12.753C8.421,-17.25 4.579,-20.683 0,-20.683L-9.482,-20.683L-9.482,-4.251L0,-4.251ZM-20.11,-29.184C-20.11,-30.002 -19.456,-30.737 -18.557,-30.737L0.654,-30.737C10.709,-30.737 18.966,-22.563 18.966,-12.671C18.966,-2.533 10.709,5.722 0.736,5.722L-9.482,5.722L-9.482,24.934C-9.482,25.752 -10.218,26.486 -11.036,26.486L-18.557,26.486C-19.456,26.486 -20.11,25.752 -20.11,24.934L-20.11,-29.184Z" style="fill:rgb(33,84,161);fill-rule:nonzero;"/>
            </g>
            <g transform="matrix(1,0,0,1,200.857,495.501)">
                <path d="M0,-54.116C0,-54.934 0.654,-55.67 1.553,-55.67L34.826,-55.67C35.725,-55.67 36.378,-54.934 36.378,-54.116L36.378,-47.414C36.378,-46.595 35.725,-45.86 34.826,-45.86L10.628,-45.86L10.628,-32.453L30.82,-32.453C31.637,-32.453 32.373,-31.719 32.373,-30.9L32.373,-24.115C32.373,-23.216 31.637,-22.561 30.82,-22.561L10.628,-22.561L10.628,-8.256L34.826,-8.256C35.725,-8.256 36.378,-7.519 36.378,-6.703L36.378,0.001C36.378,0.82 35.725,1.554 34.826,1.554L1.553,1.554C0.654,1.554 0,0.82 0,0.001L0,-54.116Z" style="fill:rgb(33,84,161);fill-rule:nonzero;"/>
            </g>
            <g transform="matrix(1,0,0,1,248.922,496.401)">
                <path d="M0,-55.916C0,-56.734 0.736,-57.388 1.553,-57.388L3.597,-57.388L37.604,-21.255L37.687,-21.255L37.687,-55.017C37.687,-55.835 38.34,-56.57 39.239,-56.57L46.76,-56.57C47.578,-56.57 48.313,-55.835 48.313,-55.017L48.313,0C48.313,0.816 47.578,1.472 46.76,1.472L44.799,1.472L10.627,-36.052L10.546,-36.052L10.546,-0.899C10.546,-0.081 9.892,0.653 8.993,0.653L1.553,0.653C0.736,0.653 0,-0.081 0,-0.899L0,-55.916Z" style="fill:rgb(33,84,161);fill-rule:nonzero;"/>
            </g>
            <g transform="matrix(1,0,0,1,350.04,449.804)">
                <path d="M0,37.278C10.627,37.278 18.393,29.267 18.393,18.557C18.393,7.93 10.627,-0.081 0,-0.081L-9.32,-0.081L-9.32,37.278L0,37.278ZM-19.865,-8.419C-19.865,-9.238 -19.211,-9.973 -18.394,-9.973L0.981,-9.973C16.758,-9.973 29.675,2.861 29.675,18.557C29.675,34.416 16.758,47.251 0.981,47.251L-18.394,47.251C-19.211,47.251 -19.865,46.516 -19.865,45.698L-19.865,-8.419Z" style="fill:rgb(33,84,161);fill-rule:nonzero;"/>
            </g>
            <g transform="matrix(1,0,0,1,417.886,458.551)">
                <path d="M0,18.967L-8.174,0.982L-8.42,0.982L-16.431,18.967L0,18.967ZM-35.315,36.379L-9.89,-18.637C-9.646,-19.129 -9.237,-19.537 -8.501,-19.537L-7.684,-19.537C-6.867,-19.537 -6.539,-19.129 -6.294,-18.637L18.885,36.379C19.375,37.442 18.721,38.504 17.496,38.504L10.382,38.504C9.157,38.504 8.584,38.014 8.012,36.869L4.006,28.04L-20.437,28.04L-24.442,36.869C-24.77,37.687 -25.504,38.504 -26.813,38.504L-33.925,38.504C-35.152,38.504 -35.805,37.442 -35.315,36.379" style="fill:rgb(33,84,161);fill-rule:nonzero;"/>
            </g>
            <g transform="matrix(1,0,0,1,448.866,487.245)">
                <path d="M0,-37.604L-12.508,-37.604C-13.407,-37.604 -14.061,-38.339 -14.061,-39.158L-14.061,-45.86C-14.061,-46.678 -13.407,-47.414 -12.508,-47.414L23.217,-47.414C24.116,-47.414 24.77,-46.678 24.77,-45.86L24.77,-39.158C24.77,-38.339 24.116,-37.604 23.217,-37.604L10.709,-37.604L10.709,8.257C10.709,9.076 9.974,9.81 9.155,9.81L1.554,9.81C0.735,9.81 0,9.076 0,8.257L0,-37.604Z" style="fill:rgb(33,84,161);fill-rule:nonzero;"/>
            </g>
            <g transform="matrix(1,0,0,1,506.905,458.551)">
                <path d="M0,18.967L-8.174,0.982L-8.42,0.982L-16.431,18.967L0,18.967ZM-35.314,36.379L-9.89,-18.637C-9.646,-19.129 -9.236,-19.537 -8.501,-19.537L-7.684,-19.537C-6.866,-19.537 -6.539,-19.129 -6.294,-18.637L18.886,36.379C19.376,37.442 18.721,38.504 17.495,38.504L10.383,38.504C9.157,38.504 8.585,38.014 8.013,36.869L4.007,28.04L-20.437,28.04L-24.441,36.869C-24.77,37.687 -25.504,38.504 -26.813,38.504L-33.925,38.504C-35.151,38.504 -35.806,37.442 -35.314,36.379" style="fill:rgb(33,84,161);fill-rule:nonzero;"/>
            </g>
            <g transform="matrix(1,0,0,1,576.632,497.873)">
                <path d="M0,-58.859C8.256,-58.859 14.225,-56.244 19.782,-51.256C20.519,-50.602 20.519,-49.622 19.865,-48.967L14.878,-43.817C14.306,-43.164 13.487,-43.164 12.834,-43.817C9.401,-46.842 4.823,-48.64 0.245,-48.64C-10.219,-48.64 -17.985,-39.894 -17.985,-29.593C-17.985,-19.374 -10.138,-10.71 0.326,-10.71C5.232,-10.71 9.401,-12.588 12.834,-15.369C13.487,-15.941 14.388,-15.86 14.878,-15.369L19.946,-10.137C20.601,-9.565 20.437,-8.503 19.865,-7.93C14.306,-2.534 7.276,0 0,0C-16.351,0 -29.512,-12.998 -29.512,-29.348C-29.512,-45.698 -16.351,-58.859 0,-58.859" style="fill:rgb(33,84,161);fill-rule:nonzero;"/>
            </g>
            <g transform="matrix(1,0,0,1,606.385,496.319)">
                <path d="M0,-54.934C0,-55.752 0.735,-56.488 1.554,-56.488L9.318,-56.488C10.218,-56.488 10.872,-55.752 10.872,-54.934L10.872,-21.498C10.872,-14.55 15.613,-9.074 22.726,-9.074C29.839,-9.074 34.661,-14.55 34.661,-21.417L34.661,-54.934C34.661,-55.752 35.315,-56.488 36.215,-56.488L43.98,-56.488C44.798,-56.488 45.534,-55.752 45.534,-54.934L45.534,-20.926C45.534,-8.501 35.643,1.554 22.726,1.554C9.892,1.554 0,-8.501 0,-20.926L0,-54.934Z" style="fill:rgb(33,84,161);fill-rule:nonzero;"/>
            </g>
            <g transform="matrix(1,0,0,1,686.41,449.477)">
                <path d="M0,37.932C4.088,37.932 7.357,34.743 7.357,30.492C7.357,26.406 3.271,23.38 -0.98,23.38L-9.892,23.38L-9.892,37.932L0,37.932ZM-1.144,14.388C3.025,14.388 5.888,11.118 5.888,7.03C5.888,2.944 3.025,0.081 -1.144,0.081L-9.892,0.081L-9.892,14.388L-1.144,14.388ZM-20.437,-8.092C-20.437,-8.911 -19.783,-9.646 -18.884,-9.646L-0.163,-9.646C9.566,-9.646 17.087,-3.107 17.087,5.478C17.087,11.773 11.937,16.677 8.095,18.475C12.427,19.865 18.722,24.279 18.722,31.8C18.722,40.955 10.873,47.578 0.9,47.578L-18.884,47.578C-19.783,47.578 -20.437,46.843 -20.437,46.025L-20.437,-8.092Z" style="fill:rgb(33,84,161);fill-rule:nonzero;"/>
            </g>
            <g transform="matrix(1,0,0,1,716.409,495.501)">
                <path d="M0,-54.116C0,-54.934 0.654,-55.67 1.554,-55.67L34.826,-55.67C35.725,-55.67 36.379,-54.934 36.379,-54.116L36.379,-47.414C36.379,-46.595 35.725,-45.86 34.826,-45.86L10.629,-45.86L10.629,-32.453L30.819,-32.453C31.638,-32.453 32.373,-31.719 32.373,-30.9L32.373,-24.115C32.373,-23.216 31.638,-22.561 30.819,-22.561L10.629,-22.561L10.629,-8.256L34.826,-8.256C35.725,-8.256 36.379,-7.519 36.379,-6.703L36.379,0.001C36.379,0.82 35.725,1.554 34.826,1.554L1.554,1.554C0.654,1.554 0,0.82 0,0.001L0,-54.116Z" style="fill:rgb(33,84,161);fill-rule:nonzero;"/>
            </g>
        </g>
    </g>
</svg>
